<svg width="500" height="500" viewBox="0 0 500 500" fill="none" xmlns="http://www.w3.org/2000/svg">
<path d="M95.6032 308.516C95.5572 306.598 95.4882 304.702 95.4682 302.817L95.7492 303.098C91.2062 303.151 86.6622 303.261 82.1192 303.266L68.4892 303.331L69.0032 302.817L68.9482 314.336L68.4892 313.877C70.7352 313.895 72.9752 313.885 75.2272 313.934L82.0002 314.049L95.7492 314.336L95.6032 308.516ZM82.2372 314.623L75.3802 314.738C73.0892 314.786 70.7852 314.776 68.4882 314.795L68.0312 314.799L68.0292 314.336L67.9742 302.817L67.9712 302.3L68.4882 302.302L82.1182 302.367C86.6612 302.372 91.2052 302.483 95.7482 302.535L96.0322 302.538L96.0292 302.816C96.0102 304.771 95.9412 306.714 95.8942 308.636L95.7482 314.335L82.2372 314.623Z" fill="#EBEBEB"/>
<path d="M80.3961 323.041C80.3501 321.123 80.2801 319.227 80.2611 317.342L80.5421 317.623C75.9991 317.676 71.4551 317.786 66.9121 317.791L53.2821 317.856L53.7961 317.342L53.7411 328.861L53.2821 328.402C55.5281 328.42 57.7681 328.41 60.0201 328.459L66.7931 328.574L80.5421 328.861L80.3961 323.041ZM67.0311 329.148L60.1741 329.263C57.8831 329.311 55.5801 329.302 53.2821 329.32L52.8251 329.324L52.8231 328.861L52.7681 317.342L52.7661 316.825L53.2831 316.827L66.9131 316.892C71.4561 316.897 76.0001 317.008 80.5431 317.061L80.8271 317.064L80.8241 317.342C80.8051 319.297 80.7361 321.24 80.6891 323.162L80.5421 328.861L67.0311 329.148Z" fill="#EBEBEB"/>
<path d="M110.809 323.041C110.763 321.123 110.694 319.227 110.674 317.342L110.955 317.623C106.412 317.676 101.868 317.786 97.3252 317.791L83.6952 317.856L84.2092 317.342L84.1542 328.861L83.6952 328.402C85.9412 328.42 88.1812 328.41 90.4332 328.459L97.2062 328.574L110.955 328.861L110.809 323.041ZM97.4442 329.148L90.5872 329.263C88.2962 329.311 85.9922 329.302 83.6952 329.32L83.2382 329.324L83.2362 328.861L83.1812 317.342L83.1792 316.825L83.6962 316.827L97.3262 316.892C101.869 316.897 106.413 317.008 110.956 317.061L111.24 317.064L111.237 317.342C111.218 319.297 111.149 321.24 111.102 323.162L110.955 328.861L97.4442 329.148Z" fill="#EBEBEB"/>
<path d="M431.598 323.041C431.551 321.123 431.482 319.227 431.463 317.342L431.744 317.623C427.201 317.676 422.657 317.786 418.114 317.791L404.484 317.856L404.998 317.342L404.943 328.861L404.484 328.402C406.73 328.42 408.97 328.41 411.222 328.459L417.995 328.574L431.744 328.861L431.598 323.041ZM418.233 329.148L411.376 329.263C409.085 329.311 406.781 329.302 404.484 329.32L404.027 329.324L404.025 328.861L403.97 317.342L403.967 316.825L404.484 316.827L418.114 316.892C422.657 316.897 427.201 317.008 431.744 317.061L432.028 317.064L432.025 317.342C432.006 319.297 431.937 321.24 431.89 323.162L431.744 328.861L418.233 329.148Z" fill="#EBEBEB"/>
<path d="M431.598 59.048C431.551 57.13 431.482 55.234 431.463 53.349L431.744 53.63C427.201 53.683 422.657 53.793 418.114 53.798L404.484 53.863L404.998 53.349L404.943 64.868L404.484 64.409C406.73 64.427 408.97 64.417 411.222 64.466L417.995 64.581L431.744 64.868L431.598 59.048ZM418.233 65.155L411.376 65.27C409.085 65.319 406.781 65.308 404.484 65.327L404.027 65.331L404.025 64.868L403.97 53.349L403.967 52.832L404.484 52.834L418.114 52.899C422.657 52.904 427.201 53.015 431.744 53.067L432.028 53.07L432.025 53.348C432.006 55.303 431.937 57.246 431.89 59.168L431.744 64.868L418.233 65.155Z" fill="#EBEBEB"/>
<path d="M446.805 73.5729C446.759 71.6549 446.69 69.7589 446.67 67.8739L446.951 68.1549C442.408 68.2079 437.864 68.3179 433.321 68.3239L419.691 68.3889L420.205 67.8749L420.15 79.3939L419.691 78.9349C421.937 78.9529 424.177 78.9429 426.429 78.9919L433.202 79.1069L446.951 79.3939L446.805 73.5729ZM433.44 79.6799L426.583 79.7949C424.292 79.8439 421.988 79.8329 419.691 79.8519L419.234 79.8559L419.232 79.3929L419.177 67.8739L419.174 67.3569L419.691 67.3599L433.321 67.4249C437.864 67.4299 442.408 67.5409 446.951 67.5939L447.235 67.5969L447.232 67.8749C447.213 69.8299 447.144 71.7729 447.097 73.6949L446.951 79.3939L433.44 79.6799Z" fill="#EBEBEB"/>
<path d="M80.3961 59.0602C80.3501 57.1422 80.2801 55.2462 80.2611 53.3612L80.5421 53.6422C75.9991 53.6952 71.4551 53.8052 66.9121 53.8112L53.2821 53.8762L53.7961 53.3622L53.7401 64.8802L53.2811 64.4212C55.5271 64.4392 57.7671 64.4292 60.0191 64.4782L66.7921 64.5932L80.5411 64.8802L80.3961 59.0602ZM67.0311 65.1672L60.1741 65.2822C57.8831 65.3312 55.5801 65.3202 53.2821 65.3392L52.8251 65.3432L52.8231 64.8802L52.7681 53.3612L52.7661 52.8442L53.2831 52.8462L66.9131 52.9112C71.4561 52.9162 76.0001 53.0272 80.5431 53.0802L80.8271 53.0832L80.8241 53.3612C80.8051 55.3162 80.7361 57.2592 80.6891 59.1812L80.5431 64.8802L67.0311 65.1672Z" fill="#EBEBEB"/>
<path d="M255.309 211.243C255.355 213.161 255.424 215.057 255.444 216.942L255.163 216.661C259.706 216.608 264.25 216.498 268.793 216.492L282.423 216.427L281.909 216.941L281.964 205.422L282.423 205.881C280.177 205.863 277.937 205.873 275.684 205.824L268.911 205.709L255.162 205.422L255.309 211.243ZM268.675 205.136L275.532 205.021C277.823 204.972 280.126 204.983 282.424 204.964L282.881 204.96L282.883 205.422L282.938 216.941L282.941 217.458L282.424 217.455L268.794 217.39C264.25 217.385 259.707 217.274 255.164 217.221L254.88 217.218L254.883 216.94C254.902 214.985 254.971 213.042 255.018 211.12L255.164 205.421L268.675 205.136Z" fill="#EBEBEB"/>
<path d="M270.516 196.717C270.562 198.635 270.632 200.531 270.651 202.416L270.37 202.135C274.914 202.082 279.457 201.972 284 201.966L297.63 201.901L297.116 202.415L297.171 190.896L297.63 191.355C295.384 191.337 293.144 191.347 290.892 191.298L284.119 191.183L270.37 190.896L270.516 196.717ZM283.882 190.61L290.739 190.495C293.03 190.447 295.333 190.457 297.631 190.438L298.088 190.434L298.09 190.896L298.145 202.415L298.148 202.932L297.631 202.929L284 202.866C279.457 202.861 274.913 202.75 270.37 202.697L270.086 202.694L270.089 202.416C270.108 200.461 270.177 198.518 270.224 196.596L270.37 190.897L283.882 190.61Z" fill="#EBEBEB"/>
<path d="M303.137 140.174L454.247 140.174V131.203L303.137 131.203V140.174Z" fill="#EBEBEB"/>
<path d="M442.775 140.178H433.799V169.854H442.775V140.178Z" fill="#EBEBEB"/>
<path d="M442.775 140.178H433.799V149.35H442.775V140.178Z" fill="#DBDBDB"/>
<path d="M323.578 140.178H314.602V169.854H323.578V140.178Z" fill="#EBEBEB"/>
<path d="M323.578 140.178H314.602V149.35H323.578V140.178Z" fill="#DBDBDB"/>
<path d="M416.054 131.205V74.0205H401.654V131.205H416.054Z" fill="#C7C7C7"/>
<path d="M416.054 77.2469V70.9629H401.654V77.2469H416.054Z" fill="#DBDBDB"/>
<path d="M416.054 87.6308V85.2988H401.654V87.6308H416.054Z" fill="#DBDBDB"/>
<path d="M416.054 123.703V117.419H399.859V123.703H416.054Z" fill="#DBDBDB"/>
<path d="M401.654 131.204V64.498H391.59V131.204H401.654Z" fill="#DBDBDB"/>
<path d="M399.686 96.426V70.77H393.647V96.426H399.686Z" fill="#EBEBEB"/>
<path d="M327.067 131.228L374.508 84.334L367.433 77.1765L319.992 124.071L327.067 131.228Z" fill="#C7C7C7"/>
<path d="M336.764 118.77L355.01 100.733L350.764 96.4377L332.518 114.474L336.764 118.77Z" fill="#DBDBDB"/>
<path d="M391.597 131.214V80.5464H374.506V131.214H391.597Z" fill="#A6A6A6"/>
<path d="M391.596 125.843V121.121H374.505V125.843H391.596Z" fill="#C7C7C7"/>
<path d="M391.597 118.022V116.191H374.506V118.022H391.597Z" fill="#C7C7C7"/>
<path d="M427.86 131.215V83.5981H416.054V131.215H427.86Z" fill="#A6A6A6"/>
<path d="M427.86 126.168V121.73H416.054V126.168H427.86Z" fill="#C7C7C7"/>
<path d="M427.86 97.8516V93.4136H416.054V97.8516H427.86Z" fill="#C7C7C7"/>
<path d="M427.86 102.612V100.891H416.054V102.612H427.86Z" fill="#C7C7C7"/>
<path d="M206.046 64.499H136.556V148.79H206.046V64.499Z" fill="#EBEBEB"/>
<path d="M198.105 72.1919H144.496V141.097H198.105V72.1919Z" fill="white"/>
<path d="M146.588 72.1919H144.496V141.097H146.588V72.1919Z" fill="#DBDBDB"/>
<path d="M208.138 64.499H206.046V148.79H208.138V64.499Z" fill="#DBDBDB"/>
<path d="M175.103 81.6909H162.462V119.351H175.103V81.6909Z" fill="#DBDBDB"/>
<path d="M191.153 126.285H156.447V106.834H191.153V126.285ZM157.447 125.285H190.153V107.834H157.447V125.285Z" fill="#EBEBEB"/>
<path d="M123.422 153.559H53.9321V237.849H123.422V153.559Z" fill="#EBEBEB"/>
<path d="M115.482 161.252H61.873V230.156H115.482V161.252Z" fill="white"/>
<path d="M63.965 161.252H61.873V230.156H63.965V161.252Z" fill="#DBDBDB"/>
<path d="M125.515 153.559H123.423V237.849H125.515V153.559Z" fill="#DBDBDB"/>
<path d="M94.3163 179.064H83.4873V206.445H94.3163V179.064Z" fill="#EBEBEB"/>
<path d="M106.219 215.079H76.127V195.204H106.219V215.079ZM77.127 214.079H105.219V196.204H77.127V214.079Z" fill="#DBDBDB"/>
<path d="M250 448.761C358.475 448.761 446.411 430.438 446.411 407.835C446.411 385.232 358.475 366.909 250 366.909C141.525 366.909 53.5889 385.232 53.5889 407.835C53.5889 430.438 141.525 448.761 250 448.761Z" fill="#EBEBEB"/>
<path d="M228.846 389.137L388.26 367.807L455.244 415.277L297.986 446.69L228.846 389.137Z" fill="#455A64"/>
<path d="M228.846 389.137L297.986 446.69L455.244 415.277V417.913L297.663 449.155L228.846 391.404V389.137Z" fill="#263238"/>
<path d="M238.504 389.639L301.789 442.489L449.154 413.156L384.351 367.604C384.351 367.604 341.313 367.88 339.267 368.245C337.22 368.61 317.577 374.03 317.577 374.03C317.577 374.03 290.812 375.309 288.958 375.684C287.702 375.938 260.72 380.721 246.201 384.768L238.504 389.639Z" fill="white"/>
<path d="M317.577 374.029L324.867 380.181L332.102 386.395L346.485 398.922L360.745 411.59L367.831 417.974L374.861 424.422L367.571 418.271L360.336 412.057L345.954 399.529L331.695 386.86L324.609 380.476L317.577 374.029Z" fill="#DBDBDB"/>
<path d="M373.865 415.13C378.404 413.577 382.989 412.186 387.618 410.938C388.777 410.629 389.93 410.302 391.103 410.029C391.693 409.895 392.271 409.76 392.9 409.66L394.682 409.415L401.8 408.447C406.543 407.785 411.297 407.205 416.046 406.585C420.796 405.97 425.551 405.398 430.31 404.843C425.582 405.613 420.851 406.366 416.114 407.076C411.376 407.78 406.644 408.525 401.9 409.188L394.788 410.207L393.013 410.464C392.461 410.562 391.874 410.707 391.299 410.849L387.821 411.709C383.189 412.908 378.547 414.089 373.865 415.13Z" fill="#DBDBDB"/>
<path d="M369.669 410.906C374.139 409.652 378.636 408.519 383.167 407.526C385.435 407.027 387.679 406.483 390.018 406.173L396.9 405.188C401.486 404.516 406.082 403.916 410.675 403.29C415.267 402.66 419.868 402.083 424.47 401.518C419.9 402.3 415.327 403.071 410.746 403.789C406.166 404.511 401.589 405.259 397.002 405.934L390.125 406.971C388.981 407.125 387.881 407.381 386.736 407.606L383.332 408.293C378.798 409.25 374.245 410.131 369.669 410.906Z" fill="#DBDBDB"/>
<path d="M365.586 407.105C370.03 405.886 374.499 404.769 378.998 403.789C381.253 403.303 383.48 402.767 385.78 402.392L392.651 401.6C397.224 401.067 401.805 400.597 406.384 400.115C410.962 399.624 415.545 399.187 420.13 398.763C415.571 399.411 411.012 400.044 406.446 400.624C401.881 401.213 397.319 401.814 392.749 402.352C390.471 402.636 388.168 402.889 385.909 403.198L379.159 404.545C374.655 405.484 370.131 406.338 365.586 407.105Z" fill="#DBDBDB"/>
<path d="M362.049 404.227C366.376 402.551 370.787 401.151 375.256 399.892C375.817 399.734 376.379 399.594 376.956 399.472C377.535 399.331 378.149 399.266 378.72 399.214L382.18 398.9L389.097 398.305C398.323 397.559 407.552 396.854 416.791 396.27C407.588 397.269 398.375 398.155 389.162 399.036L382.252 399.679L378.801 400.016C377.65 400.075 376.613 400.438 375.472 400.704C371.008 401.869 366.569 403.186 362.049 404.227Z" fill="#DBDBDB"/>
<path d="M358.208 400.776C362.535 399.1 366.945 397.7 371.415 396.442C371.976 396.284 372.538 396.144 373.115 396.022C373.693 395.881 374.308 395.816 374.879 395.764L378.339 395.45L385.256 394.855C394.482 394.109 403.711 393.404 412.95 392.82C403.747 393.819 394.534 394.705 385.321 395.586L378.411 396.228L374.96 396.565C373.809 396.624 372.772 396.987 371.631 397.254C367.167 398.418 362.727 399.734 358.208 400.776Z" fill="#DBDBDB"/>
<path d="M354.366 397.324C358.693 395.648 363.104 394.248 367.573 392.99C368.134 392.832 368.696 392.692 369.273 392.57C369.852 392.429 370.466 392.364 371.037 392.312L374.497 391.998L381.414 391.403C390.64 390.657 399.869 389.952 409.108 389.368C399.905 390.367 390.691 391.253 381.479 392.134L374.569 392.777L371.118 393.114C369.967 393.173 368.93 393.536 367.789 393.803C363.325 394.966 358.885 396.283 354.366 397.324Z" fill="#DBDBDB"/>
<path d="M391.82 387.057C396.757 386.688 400.02 386.616 404.961 386.304C395.758 387.303 392.927 387.412 383.714 388.294C383.714 388.294 387.527 387.378 391.82 387.057Z" fill="#DBDBDB"/>
<path d="M246.202 384.767L306.35 432.694C306.35 432.694 340.103 425.212 346.421 424.214C352.739 423.216 375.149 424.437 375.149 424.437C375.149 424.437 402.708 415.225 414.47 413.484C426.232 411.744 443.524 410.906 443.524 410.906L449.155 413.155L378.246 427.269L301.79 442.488L238.505 389.638L246.202 384.767Z" fill="#EBEBEB"/>
<path d="M395.331 249.278C412.281 265.872 415.127 291.545 411.555 314.032C411.462 314.542 410.673 314.403 410.673 313.924C410.673 308.805 410.828 303.732 410.812 298.675C410.719 298.443 410.642 298.227 410.549 297.994C406.126 294.777 402.058 291.143 399.537 286.163C396.707 280.595 395.594 274.317 393.428 268.502C393.227 267.945 393.821 268.109 394.209 268.396C404.519 276 407.806 284.184 410.765 295.118C410.626 289.442 410.193 283.766 408.971 278.091C406.744 267.713 402.336 257.429 394.882 249.727C394.605 249.432 395.038 248.984 395.331 249.278Z" fill="#263238"/>
<path d="M392.146 251.213C389.23 251.311 387.402 255.972 385.129 257.332C383.927 258.056 382.756 258.011 381.911 256.826C379.659 253.683 382.749 249.805 385.654 247.636C383.576 248.49 381.853 249.992 379.613 250.417C378.256 250.666 377.202 250.163 376.885 248.784C375.898 244.498 381.273 242.592 384.96 242.503C383.172 241.26 378.048 237.881 380.77 236.22C383.529 234.553 389.541 239.383 391.503 240.974C394.385 243.313 397.823 246.808 397.953 250.466C398.122 254.736 394.39 252.108 392.146 251.213Z" fill="#D591C8"/>
<path opacity="0.1" d="M392.146 251.213C389.23 251.311 387.402 255.972 385.129 257.332C383.927 258.056 382.756 258.011 381.911 256.826C379.659 253.683 382.749 249.805 385.654 247.636C383.576 248.49 381.853 249.992 379.613 250.417C378.256 250.666 377.202 250.163 376.885 248.784C375.898 244.498 381.273 242.592 384.96 242.503C383.172 241.26 378.048 237.881 380.77 236.22C383.529 234.553 389.541 239.383 391.503 240.974C394.385 243.313 397.823 246.808 397.953 250.466C398.122 254.736 394.39 252.108 392.146 251.213Z" fill="black"/>
<path d="M392.99 251.931C389.262 250.236 382.099 252.676 381.49 251.265C380.255 248.393 385.979 246.423 389.068 246.041C386.223 245.27 380.771 244.042 380.939 241.298C381.144 237.947 389.301 240.829 393.429 243.995C398.631 247.983 398.596 251.831 397.736 252.602C396.557 253.659 393.605 252.211 392.99 251.931Z" fill="#D591C8"/>
<path d="M433.934 247.635C416.365 263.573 412.545 289.119 415.26 311.725C415.333 312.239 416.127 312.129 416.145 311.65C416.34 306.535 416.378 301.46 416.586 296.407C416.688 296.179 416.773 295.966 416.875 295.737C421.417 292.691 425.62 289.214 428.329 284.333C431.369 278.877 432.72 272.645 435.105 266.917C435.327 266.368 434.728 266.509 434.328 266.781C423.736 273.987 420.141 282.04 416.768 292.854C417.123 287.187 417.772 281.532 419.208 275.907C421.828 265.622 426.624 255.512 434.366 248.1C434.655 247.817 434.239 247.353 433.934 247.635Z" fill="#263238"/>
<path d="M437.044 249.69C439.954 249.899 441.603 254.626 443.823 256.072C444.997 256.841 446.168 256.841 447.058 255.689C449.428 252.634 446.488 248.641 443.667 246.364C445.711 247.296 447.376 248.863 449.598 249.373C450.945 249.673 452.017 249.211 452.386 247.845C453.536 243.6 448.237 241.491 444.556 241.261C446.39 240.087 451.638 236.906 448.982 235.142C446.289 233.371 440.097 237.969 438.076 239.485C435.107 241.712 431.539 245.074 431.27 248.725C430.938 252.983 434.767 250.499 437.044 249.69Z" fill="#D991B8"/>
<path opacity="0.1" d="M437.044 249.69C439.954 249.899 441.603 254.626 443.823 256.072C444.997 256.841 446.168 256.841 447.058 255.689C449.428 252.634 446.488 248.641 443.667 246.364C445.711 247.296 447.376 248.863 449.598 249.373C450.945 249.673 452.017 249.211 452.386 247.845C453.536 243.6 448.237 241.491 444.556 241.261C446.39 240.087 451.638 236.906 448.982 235.142C446.289 233.371 440.097 237.969 438.076 239.485C435.107 241.712 431.539 245.074 431.27 248.725C430.938 252.983 434.767 250.499 437.044 249.69Z" fill="black"/>
<path d="M436.173 250.376C439.963 248.824 447.028 251.534 447.69 250.147C449.033 247.324 443.388 245.137 440.316 244.638C443.188 243.976 448.683 242.956 448.62 240.208C448.543 236.852 440.282 239.421 436.036 242.428C430.687 246.216 430.574 250.062 431.404 250.865C432.542 251.967 435.548 250.632 436.173 250.376Z" fill="#D591C8"/>
<path d="M415.968 289.727C414.67 298.127 413.063 306.811 410.513 314.927C410.27 315.667 409.172 315.477 409.285 314.679C410.439 306.913 412.543 299.291 413.697 291.525C414.87 283.668 415.496 275.701 415.046 267.754C414.306 254.668 410.753 240.748 402.214 230.508C402.026 230.265 402.425 229.922 402.618 230.148C419.714 250.082 416.994 274.522 416.979 276.711C419.399 268.458 421.893 258.999 431.048 250.596C431.443 250.234 431.751 250.406 431.685 251.022C430.048 266.328 425.793 274.32 416.919 282.502C416.666 284.93 416.353 287.344 415.968 289.727Z" fill="#263238"/>
<path d="M402.059 232.802C398.984 231.436 394.741 235.352 391.699 235.619C390.087 235.764 388.895 235.129 388.615 233.474C387.861 229.079 393.018 226.611 397.124 225.823C394.538 225.663 391.994 226.354 389.456 225.668C387.923 225.243 387.082 224.19 387.448 222.6C388.581 217.656 395.117 218.384 398.989 220.147C397.76 217.958 394.144 211.872 397.805 211.519C401.507 211.177 405.313 219.216 406.548 221.854C408.362 225.732 410.169 231.088 408.462 234.949C406.487 239.466 403.937 234.861 402.059 232.802Z" fill="#C38FCB"/>
<path opacity="0.1" d="M402.059 232.802C398.984 231.436 394.741 235.352 391.699 235.619C390.087 235.764 388.895 235.129 388.615 233.474C387.861 229.079 393.018 226.611 397.124 225.823C394.538 225.663 391.994 226.354 389.456 225.668C387.923 225.243 387.082 224.19 387.448 222.6C388.581 217.656 395.117 218.384 398.989 220.147C397.76 217.958 394.144 211.872 397.805 211.519C401.507 211.177 405.313 219.216 406.548 221.854C408.362 225.732 410.169 231.088 408.462 234.949C406.487 239.466 403.937 234.861 402.059 232.802Z" fill="black"/>
<path d="M402.573 233.973C399.558 230.338 390.899 229.263 390.977 227.493C391.142 223.892 398.072 224.728 401.469 225.888C398.905 223.656 393.867 219.638 395.422 216.875C397.321 213.501 404.334 220.597 407.024 225.96C410.413 232.717 408.441 236.692 407.16 237.059C405.404 237.561 403.07 234.573 402.573 233.973Z" fill="#D591C8"/>
<path d="M427.216 294.334L434.755 351.943H388.874C389.819 346.839 398.359 294.268 398.359 294.268L427.216 294.334Z" fill="#8999E7"/>
<path d="M45.7539 351.704L96.8149 351.461L147.877 351.373L250 351.205L352.123 351.372L403.184 351.459L454.246 351.704L403.184 351.949L352.123 352.037L250 352.203L147.877 352.035L96.8149 351.947L45.7539 351.704Z" fill="#263238"/>
<path d="M126.012 163.892C115.347 185.057 98.9785 208.664 98.9565 233.228C98.9665 252.478 109.227 270.038 121.745 283.976C149.299 314.61 196.546 338.178 235.936 314.858C251.665 305.538 266.049 277.88 254.761 260.333C248.953 251.338 239.763 245.737 231.634 239.081C220.89 230.335 215.153 219.526 214.605 205.619C213.5 178.519 222.98 163.286 231.618 138.381C233.206 133.756 234.131 128.907 231.422 123.189C229.435 117.693 225.567 112.808 220.746 108.921C216.939 104.976 212.545 101.698 207.269 99.9852C196.158 96.3332 181.584 101.551 170.641 103.963C159.563 106.416 152.849 111.15 147.531 121.286C140.152 135.377 133.185 149.69 126.012 163.892Z" fill="#263238"/>
<path d="M118.772 172.876C129.797 154.106 141.174 135.583 152.441 116.966C152.509 116.854 152.695 116.938 152.629 117.056C143.805 132.643 135.202 148.332 126.17 163.809C117.319 178.975 107.176 193.963 99.6853 209.852C82.8703 245.521 113.291 276.759 144.671 288.72C146.098 289.264 145.071 291.476 143.643 290.88C116.425 279.511 88.4383 255.917 93.4323 223.036C96.1643 205.051 109.759 188.22 118.772 172.876Z" fill="#263238"/>
<path d="M230.729 135.712C230.91 135.331 231.468 135.605 231.316 135.991C223.344 156.179 212.154 178.969 215.69 201.251C217.421 212.154 222.484 222.481 230.115 230.474C236.182 236.829 243.941 240.627 251.025 245.637C278.722 265.228 260.617 306.372 231.373 312.467C230.758 312.595 230.514 311.543 231.127 311.386C252.214 305.976 267.43 285.772 262.175 263.571C257.956 245.753 236.546 241.201 225.893 227.826C203.815 200.112 217.233 164.167 230.729 135.712Z" fill="#263238"/>
<path d="M184.537 215.376C200.453 263.338 227.606 322.445 242.649 333.569C255.537 343.1 303.989 355.695 325.008 354.383C331.182 353.998 327.298 297.366 320.732 296.57C310.208 295.295 271.088 285.869 270.309 285.676C268.639 285.263 225.388 225.092 207.129 208.259C185.775 188.575 177.417 193.919 184.537 215.376Z" fill="#F0B595"/>
<path d="M323.769 311.719C323.769 311.719 358.682 330.999 360.059 332.533C361.424 334.1 359.318 336.112 357.726 337.765C357.345 338.17 355.897 338.817 354.048 339.714C348.123 342.532 337.773 347.744 342.608 354.48C348.968 363.338 372.252 351.661 375.603 349.265C376.497 348.611 377.635 346.986 378.68 344.773C381.487 338.816 383.692 328.667 379.165 322.112C372.962 313.123 362.672 306.997 354.118 301.047L323.769 311.719Z" fill="#F0B595"/>
<path d="M323.769 311.719C323.769 311.719 358.682 330.999 360.059 332.533C361.424 334.1 359.318 336.112 357.726 337.765C357.345 338.17 355.897 338.817 354.048 339.714C362.807 341.547 372.494 343.536 378.68 344.774C381.487 338.817 383.692 328.668 379.165 322.113C372.962 313.124 362.672 306.998 354.118 301.048L323.769 311.719Z" fill="#263238"/>
<path d="M282.874 348.624C285.178 349.011 304.247 355.405 318.616 360.24C328.427 353.839 349.461 343.378 355.017 340.582C360.669 336.417 375.126 330.732 375.43 331.348C376.005 332.504 378.037 336.587 380.897 341.344C384.686 347.624 389.896 355.098 395.059 358.586C397.879 360.483 400.646 361.196 403.191 359.944C407.756 357.689 403.234 347.487 398.934 334.932C393.1 317.827 385.001 297.133 375.935 293.605C362.541 288.388 341.47 293.411 335.028 294.179C328.567 294.934 301.62 293.175 301.62 293.175C275.547 316.582 279.802 348.079 282.874 348.624Z" fill="#F0B595"/>
<path d="M347.003 285.683C347.003 285.683 342.22 273.172 351.015 270.603C359.81 268.034 362.513 281.152 362.513 281.152L347.003 285.683Z" fill="#FF9BBC"/>
<path d="M362.375 280.642L346.865 285.173L373.275 375.582L388.785 371.051L362.375 280.642Z" fill="#AFA5E8"/>
<path opacity="0.1" d="M352.58 293.403L351.573 293.697L373.801 369.79L374.808 369.496L352.58 293.403Z" fill="black"/>
<path opacity="0.1" d="M356.058 292.377L355.051 292.671L377.279 368.765L378.286 368.47L356.058 292.377Z" fill="black"/>
<path opacity="0.1" d="M359.525 291.374L358.518 291.668L380.745 367.761L381.752 367.467L359.525 291.374Z" fill="black"/>
<path opacity="0.1" d="M363.003 290.346L361.996 290.641L384.224 366.734L385.231 366.44L363.003 290.346Z" fill="black"/>
<path d="M363.533 279.777L345.422 285.067L346.472 288.661L364.583 283.37L363.533 279.777Z" fill="#37474F"/>
<path d="M364.693 283.75L346.582 289.041L347.631 292.634L365.743 287.344L364.693 283.75Z" fill="#37474F"/>
<path d="M388.78 371.047L386.204 383.911L385.369 388.155L382.347 385.037L373.251 375.582L374.163 372.871C374.163 372.871 376.312 374.65 376.356 374.675L377.268 371.964C377.268 371.964 379.418 373.743 379.462 373.768L380.34 371.067C380.34 371.067 382.524 372.836 382.568 372.86L383.446 370.159C383.446 370.159 385.63 371.929 385.674 371.953L386.552 369.252C386.552 369.252 388.736 371.023 388.78 371.047Z" fill="#EBEBEB"/>
<path d="M386.205 383.912L385.37 388.156L382.349 385.038L386.205 383.912Z" fill="#37474F"/>
<path d="M318.616 360.24C323.52 361.906 327.866 363.438 330.79 364.561C342.305 368.991 350.139 367.716 358.134 365.142C366.089 362.542 389.682 371.4 384.86 358.481C380.018 345.548 352.548 346.822 352.808 343.146C352.862 342.451 353.692 341.554 355.017 340.583C349.461 343.378 328.427 353.839 318.616 360.24Z" fill="#F0B595"/>
<path d="M358.821 338.215C359.124 338.1 359.166 338.308 358.854 338.505C357.876 339.122 353.555 341.923 354.072 342.988C354.97 344.84 367.335 346.875 372.372 348.637C372.644 348.732 372.536 349.116 372.284 349.011C370.963 348.457 365.539 347.537 364.23 347.275C361.688 346.767 353.833 345.783 352.703 343.452C351.946 341.893 357.63 338.667 358.821 338.215Z" fill="#263238"/>
<path d="M256.284 252.02L200.143 265.101C200.143 265.101 183.958 225.674 180.02 203.526C177.813 191.115 185.128 190.228 194.702 196.397C228.211 217.989 256.284 252.02 256.284 252.02Z" fill="#AFA5E8"/>
<path d="M242.38 239.17C242 239.55 241.65 239.78 241.24 239.93C240.4 240.2 239.55 240.07 238.88 239.52C237.84 238.74 236.34 238.68 235.3 239.36C234.76 239.66 234.35 240.21 234.13 240.65C233.89 241.14 233.62 241.59 233.42 242.09C233.86 241.77 234.22 241.4 234.63 241.05C235.01 240.65 235.34 240.42 235.76 240.24C236.56 239.94 237.46 240.05 238.11 240.56C239.07 241.35 240.61 241.49 241.66 240.84C242.2 240.56 242.63 240.02 242.88 239.56C243.1 239.09 243.39 238.63 243.59 238.13C243.15 238.46 242.77 238.82 242.38 239.17ZM191.3 206.77C190.92 207.15 190.57 207.37 190.16 207.53C189.32 207.8 188.47 207.66 187.8 207.12C186.76 206.33 185.26 206.26 184.22 206.94C183.68 207.24 183.27 207.81 183.05 208.26C182.81 208.73 182.54 209.19 182.34 209.69C182.78 209.36 183.14 208.98 183.55 208.63C183.93 208.24 184.25 208 184.68 207.84C185.48 207.54 186.38 207.66 187.01 208.16C187.99 208.93 189.51 209.09 190.58 208.43C191.12 208.14 191.55 207.62 191.79 207.15C192.02 206.68 192.29 206.23 192.5 205.73C192.07 206.04 191.69 206.42 191.3 206.77ZM204.76 241.62C204.59 241.12 204.46 240.6 204.25 240.11C204.18 240.65 204.18 241.17 204.13 241.7C204.14 242.26 204.08 242.65 203.91 243.06C203.54 243.85 202.83 244.41 202.03 244.5C200.78 244.64 199.59 245.61 199.31 246.82C199.12 247.41 199.2 248.09 199.36 248.58C199.53 249.08 199.66 249.6 199.86 250.09C199.94 249.56 199.94 249.04 199.99 248.5C199.97 247.96 200.07 247.57 200.26 247.15C200.65 246.38 201.36 245.88 202.2 245.78C203.5 245.61 204.6 244.6 204.85 243.36C205.03 242.78 204.92 242.1 204.76 241.62ZM219.01 219.76C218.48 219.76 218.07 219.68 217.67 219.49C216.9 219.1 216.37 218.38 216.3 217.53C216.12 216.25 215.1 215.15 213.88 214.88C213.29 214.72 212.6 214.83 212.14 214.99C211.64 215.16 211.11 215.29 210.61 215.49C211.16 215.57 211.68 215.57 212.22 215.6C212.77 215.6 213.17 215.67 213.58 215.84C214.35 216.19 214.92 216.92 215.02 217.72C215.14 218.97 216.12 220.15 217.34 220.44C217.92 220.63 218.59 220.55 219.09 220.39C219.6 220.22 220.1 220.09 220.61 219.87C220.07 219.79 219.55 219.81 219.01 219.76Z" fill="white"/>
<path d="M200.045 255.805C208.515 253.078 231.705 246.343 247.347 243.936C247.441 243.922 247.537 244.272 247.447 244.301C234.736 248.266 208.863 254.344 200.188 256.327C200.026 256.364 199.886 255.857 200.045 255.805Z" fill="#263238"/>
<path opacity="0.1" d="M248.766 253.774L200.138 265.098C200.138 265.098 183.964 225.671 180.025 203.531C178.606 195.587 181.102 192.364 185.589 192.688L248.766 253.774Z" fill="black"/>
<path d="M232.129 351.25H88.3501C88.3501 351.25 104.294 252.659 150.61 199.916C163.105 185.687 182.902 188.185 193.624 197.815C196.299 200.222 199.996 204.45 204.053 209.66C213.792 222.175 229.699 252.224 231.185 260.351C233.641 273.784 221.752 288.301 221.752 288.301L232.129 351.25Z" fill="#AFA5E8"/>
<path d="M232.647 259.621C231.315 254.078 228.241 249.019 225.532 244.063C222.673 238.832 219.672 233.685 216.592 228.582C216.483 228.401 216.372 228.22 216.262 228.039C215.749 226.405 215.015 224.81 214.394 223.234C213.597 221.209 212.743 219.205 211.957 217.175C211.929 217.104 211.819 217.135 211.842 217.21C212.485 219.324 213.126 221.436 213.897 223.508C214.095 224.04 214.292 224.584 214.495 225.129C213.455 223.426 212.407 221.729 211.332 220.049C209.503 217.19 207.573 214.396 205.74 211.539C205.695 211.468 205.587 211.535 205.629 211.608C208.566 216.623 211.386 221.706 214.316 226.727C217.243 231.743 220.111 236.801 222.85 241.922C224.208 244.463 225.526 247.023 226.798 249.608C228.004 252.06 229.206 254.514 230.098 257.102C231.851 262.186 231.802 267.377 230.204 272.495C228.435 278.161 225.284 283.307 222.282 288.385C222.161 288.591 222.477 288.835 222.627 288.638C228.915 280.366 235.257 270.485 232.647 259.621Z" fill="#263238"/>
<path d="M183.17 340.52C182.81 340.9 182.46 341.12 182.04 341.26C181.21 341.54 180.35 341.4 179.68 340.86C178.66 340.07 177.15 340.01 176.1 340.69C175.57 340.99 175.16 341.56 174.94 342C174.71 342.48 174.44 342.93 174.23 343.44C174.66 343.11 175.04 342.73 175.45 342.38C175.83 341.99 176.14 341.75 176.57 341.59C177.38 341.27 178.28 341.4 178.91 341.89C179.89 342.68 181.4 342.84 182.48 342.18C183.02 341.89 183.44 341.37 183.68 340.9C183.92 340.42 184.19 339.96 184.39 339.47C183.96 339.79 183.58 340.17 183.17 340.52ZM204.71 294.42C204.35 294.8 204 295.04 203.57 295.18C202.75 295.45 201.88 295.3 201.22 294.77C200.19 293.99 198.69 293.93 197.63 294.61C197.11 294.91 196.7 295.46 196.48 295.91C196.24 296.4 195.97 296.84 195.77 297.34C196.19 297.03 196.57 296.65 196.97 296.3C197.36 295.91 197.68 295.67 198.1 295.49C198.91 295.19 199.81 295.3 200.44 295.81C201.42 296.6 202.94 296.74 204.01 296.09C204.55 295.81 204.98 295.27 205.21 294.82C205.45 294.34 205.72 293.88 205.93 293.38C205.48 293.71 205.12 294.07 204.71 294.42ZM137.21 310.67C136.83 311.05 136.49 311.29 136.07 311.43C135.24 311.7 134.38 311.57 133.72 311.02C132.68 310.24 131.18 310.18 130.13 310.86C129.6 311.16 129.19 311.71 128.96 312.16C128.73 312.65 128.46 313.09 128.25 313.59C128.7 313.28 129.06 312.9 129.47 312.55C129.87 312.16 130.18 311.92 130.59 311.74C131.4 311.44 132.31 311.56 132.95 312.06C133.91 312.85 135.44 312.99 136.5 312.35C137.05 312.06 137.47 311.52 137.72 311.07C137.94 310.59 138.22 310.13 138.43 309.63C137.99 309.96 137.61 310.32 137.21 310.67ZM158.62 250.98C158.24 251.36 157.89 251.59 157.48 251.74C156.66 252.01 155.79 251.88 155.13 251.33C154.09 250.55 152.59 250.49 151.54 251.17C151.01 251.47 150.59 252.02 150.37 252.46C150.14 252.95 149.87 253.4 149.66 253.9C150.11 253.59 150.47 253.21 150.88 252.86C151.27 252.46 151.59 252.23 152 252.05C152.81 251.75 153.72 251.86 154.36 252.37C155.32 253.16 156.85 253.3 157.91 252.65C158.46 252.37 158.87 251.83 159.13 251.37C159.35 250.9 159.63 250.44 159.84 249.94C159.4 250.27 159.02 250.63 158.62 250.98ZM149.3 208.75C148.92 209.12 148.57 209.36 148.16 209.5C147.32 209.77 146.47 209.65 145.81 209.09C145.18 208.63 144.39 208.42 143.64 208.49C143.3 208.93 142.97 209.38 142.65 209.83C142.66 209.83 142.67 209.82 142.68 209.82C143.48 209.52 144.39 209.63 145.03 210.14C146 210.93 147.53 211.07 148.59 210.42C149.13 210.14 149.55 209.6 149.8 209.14C150.03 208.67 150.31 208.21 150.52 207.7C150.07 208.03 149.69 208.4 149.3 208.75ZM191.3 206.77C190.92 207.15 190.57 207.37 190.16 207.53C189.32 207.8 188.47 207.66 187.8 207.12C186.76 206.33 185.26 206.26 184.22 206.94C183.68 207.24 183.27 207.81 183.05 208.26C182.81 208.73 182.54 209.19 182.34 209.69C182.78 209.36 183.14 208.98 183.55 208.63C183.93 208.24 184.25 208 184.68 207.84C185.48 207.54 186.38 207.66 187.01 208.16C187.99 208.93 189.51 209.09 190.58 208.43C191.12 208.14 191.55 207.62 191.79 207.15C192.02 206.68 192.29 206.23 192.5 205.73C192.07 206.04 191.69 206.42 191.3 206.77ZM148.11 337.53C147.94 337.02 147.81 336.5 147.61 336.01C147.53 336.55 147.53 337.07 147.48 337.61C147.5 338.16 147.43 338.56 147.26 338.97C146.9 339.74 146.19 340.31 145.38 340.41C144.13 340.53 142.95 341.51 142.66 342.73C142.47 343.31 142.55 343.98 142.71 344.48C142.88 344.99 143.01 345.49 143.22 346C143.3 345.46 143.3 344.94 143.34 344.4C143.34 343.87 143.42 343.47 143.61 343.06C144.01 342.29 144.72 341.78 145.57 341.69C146.85 341.51 147.96 340.48 148.22 339.27C148.38 338.68 148.27 337.99 148.11 337.53ZM132.46 231.64C132.28 231.13 132.16 230.61 131.94 230.12C131.86 230.66 131.87 231.18 131.82 231.72C131.84 232.27 131.78 232.67 131.59 233.08C131.24 233.85 130.51 234.42 129.71 234.51C128.48 234.64 127.29 235.62 126.99 236.84C126.82 237.42 126.88 238.09 127.05 238.59C127.23 239.1 127.35 239.6 127.56 240.11C127.64 239.57 127.64 239.05 127.69 238.51C127.67 237.98 127.76 237.58 127.95 237.17C128.33 236.4 129.04 235.89 129.9 235.79C131.19 235.62 132.3 234.59 132.55 233.38C132.71 232.79 132.6 232.1 132.46 231.64ZM204.76 241.62C204.59 241.12 204.46 240.6 204.25 240.11C204.18 240.65 204.18 241.17 204.13 241.7C204.14 242.26 204.08 242.65 203.91 243.06C203.54 243.85 202.83 244.41 202.03 244.5C200.78 244.64 199.59 245.61 199.31 246.82C199.12 247.41 199.2 248.09 199.36 248.58C199.53 249.08 199.66 249.6 199.86 250.09C199.94 249.56 199.94 249.04 199.99 248.5C199.97 247.96 200.07 247.57 200.26 247.15C200.65 246.38 201.36 245.88 202.2 245.78C203.5 245.61 204.6 244.6 204.85 243.36C205.03 242.78 204.92 242.1 204.76 241.62ZM111.62 290.62C111.44 290.11 111.32 289.61 111.11 289.1C111.03 289.64 111.03 290.16 110.98 290.7C111 291.25 110.94 291.65 110.76 292.06C110.4 292.85 109.67 293.4 108.88 293.5C108.11 293.59 107.37 293.99 106.83 294.57C106.59 295.44 106.36 296.31 106.12 297.18V297.19C106.13 297.34 106.18 297.45 106.21 297.57C106.39 298.08 106.51 298.6 106.72 299.09C106.8 298.55 106.8 298.03 106.85 297.49C106.83 296.96 106.92 296.56 107.11 296.17C107.51 295.38 108.2 294.87 109.06 294.78C110.35 294.6 111.46 293.59 111.71 292.36C111.89 291.77 111.77 291.09 111.62 290.62ZM230.93 343.95C230.02 344.32 229.27 345.11 229.04 346.05C228.87 346.65 228.93 347.31 229.09 347.82C229.26 348.32 229.39 348.83 229.61 349.33C229.69 348.8 229.69 348.26 229.72 347.74C229.72 347.2 229.8 346.79 229.99 346.39C230.25 345.88 230.65 345.48 231.14 345.25L230.93 343.95ZM161.56 281C161.39 280.49 161.26 279.99 161.04 279.48C160.96 280.02 160.98 280.56 160.93 281.08C160.94 281.65 160.88 282.03 160.69 282.45C160.34 283.23 159.62 283.79 158.81 283.89C157.58 284.02 156.39 284.98 156.09 286.2C155.92 286.8 155.98 287.46 156.16 287.97C156.33 288.47 156.46 288.98 156.66 289.48C156.74 288.95 156.74 288.41 156.79 287.89C156.77 287.35 156.87 286.94 157.06 286.54C157.44 285.77 158.15 285.25 159 285.17C160.3 285 161.4 283.97 161.65 282.75C161.81 282.17 161.7 281.47 161.56 281ZM160.4 192.54C160.42 192.65 160.45 192.75 160.49 192.85C160.66 193.36 160.79 193.86 160.99 194.37C161.07 193.83 161.07 193.31 161.1 192.77C161.1 192.57 161.11 192.38 161.15 192.21C160.9 192.32 160.65 192.43 160.4 192.54ZM186.47 270.36C185.94 270.36 185.52 270.28 185.13 270.09C184.36 269.69 183.83 268.98 183.76 268.13C183.58 266.85 182.55 265.74 181.34 265.48C180.74 265.32 180.06 265.43 179.58 265.59C179.08 265.76 178.57 265.89 178.07 266.09C178.6 266.17 179.14 266.17 179.66 266.2C180.23 266.2 180.61 266.27 181.02 266.44C181.81 266.79 182.38 267.51 182.46 268.32C182.6 269.57 183.57 270.74 184.78 271.04C185.37 271.21 186.05 271.15 186.55 270.99C187.06 270.82 187.56 270.69 188.07 270.47C187.53 270.39 186.99 270.41 186.47 270.36ZM225.42 270.36C224.88 270.36 224.47 270.28 224.08 270.09C223.3 269.69 222.78 268.98 222.7 268.13C222.53 266.85 221.5 265.74 220.29 265.48C219.69 265.32 219.01 265.43 218.53 265.59C218.03 265.76 217.52 265.89 217.02 266.09C217.55 266.17 218.09 266.17 218.61 266.2C219.18 266.2 219.56 266.27 219.97 266.44C220.76 266.79 221.33 267.51 221.41 268.32C221.55 269.57 222.51 270.74 223.73 271.04C224.32 271.21 225 271.15 225.5 270.99C226.01 270.82 226.51 270.69 227.02 270.47C226.48 270.39 225.94 270.41 225.42 270.36ZM114.11 332.79C113.58 332.79 113.16 332.71 112.77 332.52C112 332.13 111.47 331.42 111.4 330.56C111.22 329.28 110.19 328.18 108.98 327.91C108.38 327.75 107.7 327.86 107.22 328.02C106.72 328.19 106.21 328.32 105.71 328.52C106.24 328.6 106.78 328.6 107.3 328.63C107.87 328.63 108.25 328.7 108.66 328.87C109.45 329.22 110.02 329.95 110.12 330.75C110.24 332 111.21 333.17 112.42 333.47C113.01 333.64 113.69 333.58 114.19 333.42C114.7 333.25 115.2 333.12 115.71 332.9C115.17 332.82 114.63 332.82 114.11 332.79ZM172.13 314.57C171.6 314.57 171.19 314.49 170.79 314.3C170.02 313.9 169.49 313.19 169.42 312.34C169.24 311.06 168.22 309.94 167 309.68C166.41 309.53 165.72 309.64 165.24 309.8C164.74 309.95 164.23 310.08 163.73 310.3C164.27 310.38 164.8 310.38 165.32 310.41C165.89 310.41 166.29 310.46 166.7 310.65C167.47 311 168.04 311.72 168.14 312.53C168.26 313.76 169.23 314.95 170.46 315.25C171.04 315.42 171.71 315.36 172.21 315.2C172.72 315.03 173.22 314.9 173.73 314.68C173.19 314.6 172.65 314.6 172.13 314.57ZM132.2 276.89C131.67 276.91 131.27 276.81 130.86 276.62C130.09 276.24 129.58 275.53 129.49 274.68C129.31 273.38 128.29 272.28 127.07 272.02C126.48 271.85 125.79 271.96 125.33 272.12C124.83 272.29 124.3 272.42 123.81 272.62C124.35 272.72 124.87 272.7 125.41 272.75C125.96 272.73 126.36 272.8 126.77 272.99C127.54 273.34 128.11 274.06 128.21 274.85C128.33 276.1 129.31 277.29 130.53 277.59C131.11 277.76 131.78 277.68 132.28 277.52C132.79 277.35 133.29 277.22 133.8 277.02C133.26 276.94 132.74 276.94 132.2 276.89ZM209.23 327.92C208.69 327.92 208.3 327.84 207.9 327.64C207.11 327.26 206.61 326.55 206.51 325.7C206.34 324.4 205.33 323.29 204.09 323.04C203.51 322.88 202.83 322.99 202.36 323.14C201.85 323.31 201.34 323.44 200.84 323.66C201.38 323.74 201.9 323.74 202.43 323.77C202.99 323.77 203.38 323.82 203.79 324.01C204.58 324.35 205.14 325.08 205.23 325.89C205.37 327.12 206.34 328.3 207.55 328.6C208.14 328.78 208.82 328.71 209.31 328.54C209.81 328.38 210.33 328.24 210.82 328.03C210.29 327.96 209.77 327.96 209.23 327.92ZM177.64 233.84C177.1 233.84 176.69 233.76 176.29 233.57C175.52 233.18 175 232.47 174.92 231.61C174.74 230.33 173.72 229.23 172.5 228.96C171.92 228.8 171.22 228.91 170.76 229.07C170.26 229.24 169.74 229.37 169.23 229.57C169.78 229.65 170.31 229.65 170.84 229.68C171.4 229.68 171.79 229.75 172.2 229.92C172.98 230.27 173.54 231 173.64 231.8C173.77 233.05 174.74 234.24 175.96 234.52C176.55 234.71 177.21 234.63 177.72 234.47C178.22 234.3 178.73 234.17 179.23 233.95C178.69 233.87 178.17 233.89 177.64 233.84Z" fill="white"/>
<path d="M178.441 284.721C184.597 284.244 190.812 283.971 196.979 284.41C200.047 284.628 203.084 284.988 206.13 285.412C207.648 285.624 209.164 285.784 210.688 285.937C212.253 286.093 213.921 286.202 215.484 285.968C215.625 285.947 215.658 286.157 215.52 286.186C214.016 286.502 212.576 286.801 211.039 286.915C209.579 287.024 208.098 286.976 206.636 286.886C203.522 286.694 200.419 286.358 197.307 286.134C191.029 285.682 184.754 285.232 178.457 285.235C178.167 285.235 178.15 284.744 178.441 284.721Z" fill="#263238"/>
<path d="M164.433 292.815C169.31 291.406 174.33 290.207 179.339 289.359C181.859 288.933 184.382 288.655 186.928 288.443C188.143 288.341 189.36 288.262 190.578 288.197C191.918 288.125 193.269 288.234 194.607 288.144C194.746 288.134 194.786 288.348 194.643 288.361C193.384 288.484 192.14 288.817 190.889 289.014C189.633 289.212 188.375 289.399 187.119 289.596C184.603 289.99 182.094 290.412 179.574 290.782C174.53 291.523 169.517 292.312 164.501 293.227C164.23 293.278 164.181 292.888 164.433 292.815Z" fill="#263238"/>
<path d="M144.235 202.724C101.431 240.722 48.9601 323.004 57.2171 340.965C66.4141 360.971 124.419 306.84 122.871 303.877C121.556 301.361 145.49 251.059 162.899 214.265C180.292 177.505 154.82 193.328 144.235 202.724Z" fill="#F0B595"/>
<path d="M91.877 248.195L147.568 263.074C147.568 263.074 165.011 224.188 169.66 202.177C172.265 189.843 164.982 188.722 155.215 194.58C121.03 215.083 91.877 248.195 91.877 248.195Z" fill="#AFA5E8"/>
<path d="M102.36 247.191C101.82 247.191 101.41 247.111 101.02 246.921C100.24 246.521 99.72 245.811 99.64 244.961C99.47 243.711 98.49 242.631 97.32 242.331C97.05 242.611 96.79 242.881 96.54 243.141C96.67 243.171 96.8 243.211 96.93 243.271C97.7 243.611 98.27 244.34 98.36 245.15C98.49 246.4 99.47 247.581 100.69 247.861C101.27 248.051 101.93 247.981 102.44 247.821C102.95 247.641 103.45 247.521 103.96 247.301C103.42 247.221 102.9 247.231 102.36 247.191ZM160.33 192.071C160.35 192.351 160.4 192.611 160.49 192.851C160.66 193.361 160.79 193.86 160.99 194.37C161.07 193.83 161.07 193.311 161.1 192.771C161.1 192.381 161.14 192.061 161.25 191.771C160.95 191.861 160.64 191.961 160.33 192.071ZM132.46 231.641C132.28 231.131 132.16 230.61 131.94 230.12C131.86 230.66 131.87 231.181 131.82 231.721C131.84 232.271 131.78 232.671 131.59 233.081C131.24 233.851 130.51 234.42 129.71 234.51C128.48 234.64 127.29 235.62 126.99 236.84C126.82 237.42 126.88 238.09 127.05 238.59C127.23 239.1 127.35 239.601 127.56 240.111C127.64 239.571 127.64 239.05 127.69 238.51C127.67 237.98 127.76 237.581 127.95 237.171C128.33 236.401 129.04 235.89 129.9 235.79C131.19 235.62 132.3 234.591 132.55 233.381C132.71 232.791 132.6 232.101 132.46 231.641ZM149.3 208.751C148.92 209.121 148.57 209.361 148.16 209.501C147.32 209.771 146.47 209.65 145.81 209.09C144.76 208.32 143.26 208.26 142.22 208.93C141.68 209.24 141.27 209.79 141.05 210.23C140.81 210.72 140.55 211.161 140.34 211.671C140.78 211.351 141.15 210.971 141.56 210.631C141.94 210.231 142.27 209.991 142.68 209.821C143.48 209.521 144.39 209.631 145.03 210.141C146 210.931 147.53 211.071 148.59 210.421C149.13 210.141 149.55 209.601 149.8 209.141C150.03 208.671 150.31 208.211 150.52 207.701C150.07 208.031 149.69 208.401 149.3 208.751ZM151.54 251.171C151.01 251.471 150.59 252.021 150.37 252.461C150.14 252.951 149.87 253.4 149.66 253.9C150.11 253.59 150.47 253.211 150.88 252.861C151.27 252.461 151.59 252.231 152 252.051C152.11 252.011 152.23 251.971 152.35 251.951C152.53 251.551 152.7 251.141 152.86 250.721C152.39 250.771 151.94 250.921 151.54 251.171Z" fill="white"/>
<path d="M148.271 253.23C139.893 250.232 116.932 242.756 101.375 239.847C101.282 239.83 101.174 240.177 101.263 240.208C113.84 244.58 139.505 251.486 148.111 253.746C148.273 253.79 148.429 253.288 148.271 253.23Z" fill="#263238"/>
<path d="M140.78 261.26C143.122 261.57 145.433 261.99 147.734 262.452L146.984 262.808L148.398 259.166L149.872 255.551C150.886 253.155 151.901 250.76 152.959 248.385C154.008 246.006 155.089 243.643 156.182 241.283C157.284 238.924 158.398 236.582 159.471 234.188C159.056 236.787 158.276 239.307 157.473 241.795C156.635 244.274 155.721 246.722 154.738 249.141C153.758 251.56 152.705 253.948 151.625 256.322L149.939 259.852C149.345 261.015 148.051 263.516 148.051 263.516C148.051 263.516 142.964 262.16 140.78 261.26Z" fill="#263238"/>
<path d="M159.472 241.172C158.819 242.789 157.972 244.285 157.078 245.753C156.165 247.209 155.203 248.635 154.047 249.94C154.699 248.323 155.546 246.826 156.441 245.359C157.355 243.904 158.317 242.478 159.472 241.172Z" fill="#263238"/>
<path d="M57.2169 340.966C65.3879 354.477 89.8009 358.568 150.302 374.639C158.674 376.863 190.262 322.003 181.444 319.168C170.337 315.598 126.46 304.15 123.146 303.719C95.1909 300.076 51.6739 331.801 57.2169 340.966Z" fill="#F0B595"/>
<path d="M153.437 311.441C153.437 311.441 179.319 309.023 193.31 311.962C212.045 315.898 226.599 327.009 232.418 332.033C244.563 342.521 266.677 376.276 258.066 384.342C250.271 391.643 229.41 355.997 229.41 355.997C229.41 355.997 256.677 388.831 245.675 395.897C234.673 402.962 212.811 360.205 212.811 360.205C212.811 360.205 240.07 394.569 227.572 400.06C218.127 404.21 196.144 366.6 196.144 366.6C196.144 366.6 219.37 396.299 209.84 400.985C199.31 406.163 176.84 372.72 176.84 372.72C150.613 380.554 134.92 373.555 124.35 367.248C121.792 365.72 153.437 311.441 153.437 311.441Z" fill="#F0B595"/>
<path d="M220.706 344.036C224.048 347.777 227.457 351.541 230.456 355.566C233.455 359.591 236.315 363.724 238.925 368.011C245.327 378.524 247.692 386.109 247.495 385.656C242.834 374.953 232.323 360.377 229.323 356.35C226.331 352.333 223.54 348.165 220.549 344.144C220.473 344.044 220.626 343.947 220.706 344.036Z" fill="#263238"/>
<path d="M205.975 354.599C210.036 359.561 214.25 364.337 218.093 369.48C221.917 374.597 225.098 379.787 228.56 385.154C228.827 385.567 228.517 385.575 228.232 385.17C224.558 379.945 220.759 375.398 217.024 370.218C213.302 365.055 209.754 359.708 205.847 354.686C205.789 354.608 205.914 354.524 205.975 354.599Z" fill="#263238"/>
<path d="M191.702 361.392C198.297 368.656 203.544 377.129 208.491 385.564C208.737 385.984 208.336 385.949 208.059 385.535C202.629 377.394 198.428 370.97 191.447 361.622C191.339 361.475 191.562 361.239 191.702 361.392Z" fill="#263238"/>
<path d="M95.475 308.346C99.776 306.101 111.839 300.989 123.071 303.616C123.196 303.645 123.18 303.827 123.05 303.815C113.684 302.992 99.8991 306.685 95.5531 308.52C95.4391 308.568 95.367 308.403 95.475 308.346Z" fill="#263238"/>
<path d="M174.195 187.594C159.905 187.623 160.813 203.716 164.618 212.747C167.904 220.545 178.966 230.573 184.471 229.978C189.977 229.383 187.552 216.183 187.552 216.183C187.552 216.183 195.545 226.564 199.046 225.398C202.547 224.233 200.588 212.73 194.648 203.048C188.708 193.367 182.11 187.578 174.195 187.594Z" fill="white"/>
<path d="M166.272 194.997C166.561 197.431 176.157 214.092 187.053 214.798C190.602 215.022 192.688 195.703 192.688 195.703L193.169 194.312L199.872 174.837L178.094 157.154L174.926 154.782C174.926 154.782 173.443 160.231 171.665 167.035C171.581 167.35 171.496 167.665 171.411 168.004C171.301 168.386 171.191 168.746 171.105 169.107C170.826 170.12 170.546 171.155 170.288 172.193C170.089 172.982 169.891 173.748 169.712 174.583C169.511 175.417 169.333 176.23 169.132 177.064C167.326 185.328 166.163 193.965 166.272 194.997Z" fill="#F0B595"/>
<path d="M171.665 167.036C175.607 183.574 187.581 191.477 193.168 194.313L199.871 174.838L178.093 157.155L174.925 154.783C174.925 154.783 173.443 160.233 171.665 167.036Z" fill="#263238"/>
<path d="M234.081 155.337C228.509 191.052 206.488 191.747 198.788 190.537C191.798 189.438 168.136 184.81 169.989 148.71C171.841 112.611 190.208 103.911 206.328 105.578C222.448 107.244 239.653 119.621 234.081 155.337Z" fill="#F0B595"/>
<path d="M228.463 145.929C227.653 145.659 226.95 145.275 226.177 144.926C225.304 144.531 224.568 144.307 224.041 143.458C223.758 143.002 223.947 142.238 224.363 141.922C225.333 141.185 226.522 141.403 227.592 141.835C228.753 142.304 229.528 142.963 230.132 144.058C230.716 145.118 229.531 146.285 228.463 145.929Z" fill="#263238"/>
<path d="M205.989 141.416C206.84 141.493 207.637 141.422 208.486 141.411C209.444 141.399 210.208 141.487 211.031 140.92C211.472 140.616 211.605 139.839 211.349 139.383C210.755 138.319 209.578 138.043 208.425 138.011C207.173 137.976 206.199 138.27 205.208 139.032C204.248 139.771 204.867 141.315 205.989 141.416Z" fill="#263238"/>
<path d="M208.839 151.328C208.838 151.232 208.629 151.408 208.613 151.508C208.243 153.942 207.41 156.668 205.072 157.068C204.999 157.08 204.984 157.203 205.067 157.207C207.809 157.323 208.879 153.693 208.839 151.328Z" fill="#263238"/>
<path d="M207.144 148.401C203.305 147.387 201.56 155.138 205.117 156.077C208.616 157.002 210.361 149.251 207.144 148.401Z" fill="#263238"/>
<path d="M205.53 148.468C204.754 148.754 203.917 149.379 203.083 149.276C202.117 149.157 201.587 148.184 201.145 147.265C201.099 147.17 201.017 147.222 200.992 147.324C200.635 148.804 200.864 150.457 202.406 151.037C203.813 151.566 205.152 150.486 205.859 149.076C205.99 148.816 205.842 148.353 205.53 148.468Z" fill="#263238"/>
<path d="M222.571 153.339C222.611 153.252 222.732 153.496 222.706 153.594C222.071 155.973 221.744 158.805 223.726 160.106C223.788 160.146 223.753 160.265 223.675 160.235C221.116 159.246 221.588 155.491 222.571 153.339Z" fill="#263238"/>
<path d="M225.296 151.335C229.219 151.942 227.717 159.744 224.082 159.182C220.505 158.628 222.007 150.826 225.296 151.335Z" fill="#263238"/>
<path d="M226.824 152.161C227.361 152.694 227.826 153.562 228.553 153.752C229.396 153.972 230.189 153.25 230.89 152.546C230.963 152.473 231.011 152.55 230.994 152.654C230.748 154.153 229.956 155.612 228.468 155.622C227.111 155.632 226.398 154.167 226.328 152.614C226.316 152.326 226.608 151.947 226.824 152.161Z" fill="#263238"/>
<path d="M203.454 170.299C203.871 171.01 204.229 171.931 205.07 172.239C205.878 172.534 206.948 172.426 207.785 172.339C207.868 172.33 207.922 172.431 207.855 172.489C206.989 173.232 205.537 173.447 204.489 172.954C203.466 172.473 203.188 171.398 203.196 170.344C203.197 170.196 203.393 170.195 203.454 170.299Z" fill="#263238"/>
<path d="M216.553 163.58C216.553 163.58 216.284 167.299 215.922 169.003C215.887 169.162 210.37 169.179 207.582 164.35C207.478 164.169 207.753 164.029 207.886 164.168C209.782 166.295 212.173 167.249 214.833 167.861C215.054 167.415 215.081 161.477 215.356 161.514C216.304 161.633 218.005 162.657 219.039 163.214C219.825 155.484 219.364 147.691 220.261 140.006C220.298 139.732 220.702 139.734 220.73 139.99C221.791 148.124 221.082 157.039 220.476 165.043C220.409 166.041 217.173 164.015 216.553 163.58Z" fill="#263238"/>
<path d="M169.836 147.978C169.836 147.978 162.452 133.467 169.683 117.697C176.914 101.928 200.28 96.0892 219.193 106.886C219.193 106.886 190.289 101.813 180.427 114.727C170.563 127.643 169.836 147.978 169.836 147.978Z" fill="#AFA5E8"/>
<path d="M174.941 153.064C181.447 154.58 184.704 139.65 184.704 139.65C184.704 139.65 213.292 137.799 218.044 115.17C218.044 115.17 221.348 130.25 235.379 138.374C235.379 138.374 236.996 113.194 217.619 106.262C217.619 106.262 193.876 94.725 177.977 112.866C162.078 131.007 170.573 152.046 174.941 153.064Z" fill="#263238"/>
<path d="M218.317 113.489C218.332 117.017 217.45 120.547 215.981 123.802C214.512 127.057 212.408 130.082 209.721 132.49C209.099 133.145 208.321 133.62 207.628 134.192L206.558 135.014C206.181 135.257 205.791 135.481 205.402 135.705C204.62 136.145 203.856 136.618 203.061 137.026C202.241 137.383 201.412 137.721 200.582 138.049C200.167 138.21 199.758 138.391 199.339 138.536L198.051 138.886L195.484 139.579C193.738 139.876 191.98 140.082 190.239 140.261C191.925 139.723 193.634 139.367 195.283 138.821L197.726 137.93L198.943 137.488C199.338 137.314 199.717 137.105 200.104 136.916C200.872 136.525 201.641 136.144 202.418 135.782C203.161 135.359 203.869 134.874 204.595 134.425L205.679 133.745L206.68 132.95C207.328 132.398 208.06 131.942 208.639 131.315C211.208 129.066 213.216 126.252 214.882 123.262C215.709 121.756 216.391 120.169 216.961 118.534C217.566 116.906 218 115.218 218.317 113.489Z" fill="#263238"/>
<path d="M175.613 151.19C175.613 151.19 170.649 138.349 165.006 139.857C159.363 141.365 161.214 158.664 166.516 162.273C171.817 165.882 175.254 161.04 175.254 161.04L175.613 151.19Z" fill="#F0B595"/>
<path d="M165.659 144.802C165.567 144.77 165.516 144.898 165.59 144.95C169.274 147.615 170.495 151.94 171.035 156.246C170.19 154.432 168.738 153.195 166.353 154.143C166.228 154.193 166.289 154.385 166.41 154.389C168.174 154.443 169.312 155.031 170.114 156.652C170.682 157.8 170.934 159.137 171.239 160.376C171.34 160.789 172.049 160.756 172.013 160.3C172.01 160.267 172.005 160.231 172.003 160.197C173.391 155.005 171.132 146.706 165.659 144.802Z" fill="#263238"/>
<path d="M170.314 161.553C170.062 162.323 169.233 162.742 168.464 162.49C167.694 162.238 167.275 161.409 167.527 160.64C167.779 159.87 168.608 159.451 169.377 159.703C170.146 159.954 170.566 160.783 170.314 161.553Z" fill="white"/>
<path d="M167.632 158.148C167.45 158.703 166.853 159.006 166.297 158.824C165.742 158.642 165.44 158.044 165.621 157.489C165.802 156.934 166.4 156.631 166.956 156.813C167.511 156.995 167.814 157.593 167.632 158.148Z" fill="white"/>
<path d="M120.356 344.703L114.958 412.581H77.6133L72.2153 344.703H120.356Z" fill="#AFA5E8"/>
<path d="M123.572 338.574H68.6831V348.47H123.572V338.574Z" fill="#455A64"/>
<path d="M119.81 338.574H72.4453L75.2133 327.457H117.041L119.81 338.574Z" fill="#37474F"/>
<path d="M109.25 379.239C109.25 388.052 103.446 395.195 96.2853 395.195C89.1253 395.195 83.3203 388.051 83.3203 379.239C83.3203 370.426 89.1253 363.282 96.2853 363.282C103.446 363.282 109.25 370.426 109.25 379.239Z" fill="white"/>
</svg>
