<svg width="2259" height="2084" viewBox="0 0 2259 2084" fill="none" xmlns="http://www.w3.org/2000/svg">
<g clip-path="url(#clip0_245_923)">
<rect width="2259" height="2084" fill="#FBE487"/>
<path d="M242.235 831.649C1068.89 751.676 1166 1370.8 1079.55 1439.28C725.435 1557.07 119.386 1130.46 -154.834 1105.88C-367.75 1096.61 -378.033 470.988 -134.938 342.675C345.609 262.368 -79.1633 776.004 242.235 831.649Z" fill="white" fill-opacity="0.8"/>
<path d="M2011.89 426.539C2931.82 881.353 2408.9 1261.17 2311.49 1266.02C1474.63 1022.23 2107.97 630.011 1590.93 320.43C1441.98 194.661 1754.43 -295.288 1995.51 -259.198C2383.44 -53.693 1617.83 282.132 2011.89 426.539Z" fill="white" fill-opacity="0.8"/>
<path d="M478.257 -68.1416C1000.71 -223.522 1001.83 120.47 941.431 171.366C338.214 490.691 624.345 10.785 204.699 142.406C72.9978 165.211 126.57 -194.004 290.255 -300.096C597.206 -409.912 283.446 -57.7216 478.257 -68.1416Z" fill="white" fill-opacity="0.8"/>
<path d="M1120.91 2034.27C1669.32 1668.49 2333.34 1743.99 1973.3 2249.34C1469.41 2831.79 1404.96 2179.7 970.768 2481.3C817.406 2554.79 288.807 2133.27 483.872 1905.68C797.314 1646.34 872.521 2116.3 1120.91 2034.27Z" fill="white" fill-opacity="0.8"/>
</g>
<defs>
<clipPath id="clip0_245_923">
<rect width="2259" height="2084" fill="white"/>
</clipPath>
</defs>
</svg>
