<?xml version="1.0" encoding="utf-8"?>
<!-- Generator: Adobe Illustrator 27.5.0, SVG Export Plug-In . SVG Version: 6.00 Build 0)  -->
<svg version="1.1" xmlns="http://www.w3.org/2000/svg" xmlns:xlink="http://www.w3.org/1999/xlink" x="0px" y="0px"
	 viewBox="0 0 500 500" style="enable-background:new 0 0 500 500;" xml:space="preserve">
<g id="BACKGROUND">
</g>
<g id="OBJECTS">
	<path style="fill:#F6F6FF;" d="M226.184,419.546c0,0-121.814-6.352-178.52-59.357s74.631-108.883,29.44-163.903
		S47.527,52.62,178.123,81.85c130.597,29.231,150.972-30.713,201.251,9.009c49.861,39.392-23.572,105.028,4.554,148.075
		c28.126,43.047,96.384,47.817,82.733,119.99C453.01,431.098,307.043,427.947,226.184,419.546z"/>
	<g>
		<g>
			<path style="fill:#BFB7FB;" d="M400.391,139.266h-219.34v305.098h219.34V139.266L400.391,139.266z"/>
			<path style="fill:#FFFFFF;" d="M192.314,419.484V164.145c0-6.251,5.067-11.318,11.318-11.318h174.179
				c6.251,0,11.318,5.067,11.318,11.318v255.339c0,6.251-5.067,11.318-11.318,11.318H203.632
				C197.381,430.802,192.314,425.735,192.314,419.484z"/>
		</g>
		<g>
			<polygon style="fill:#8476E3;" points="346.524,167.479 234.918,167.479 236.814,139.143 344.628,139.143 			"/>
			<g>
				<path style="fill:#8476E3;" d="M303.295,122.425h-25.149l-1.895,16.718h28.94L303.295,122.425z M290.721,135.299
					c-2.493,0-4.515-2.021-4.515-4.515c0-2.493,2.021-4.515,4.515-4.515c2.493,0,4.515,2.021,4.515,4.515
					C295.236,133.278,293.214,135.299,290.721,135.299z"/>
			</g>
		</g>
		<g>
			
				<rect x="214.169" y="196.229" style="fill:none;stroke:#8476E3;stroke-width:1.8954;stroke-miterlimit:10;" width="25.543" height="25.543"/>
			<g>
				<path style="fill:#8476E3;" d="M365.971,198.607H247.316c-0.719,0-1.302-0.583-1.302-1.302l0,0c0-0.719,0.583-1.302,1.302-1.302
					h118.655c0.719,0,1.302,0.583,1.302,1.302l0,0C367.273,198.024,366.69,198.607,365.971,198.607z"/>
				<path style="fill:#8476E3;" d="M365.971,210.303H247.316c-0.719,0-1.302-0.583-1.302-1.302l0,0c0-0.719,0.583-1.302,1.302-1.302
					h118.655c0.719,0,1.302,0.583,1.302,1.302l0,0C367.273,209.72,366.69,210.303,365.971,210.303z"/>
				<path style="fill:#8476E3;" d="M365.971,221.999H247.316c-0.719,0-1.302-0.583-1.302-1.302l0,0c0-0.719,0.583-1.302,1.302-1.302
					h118.655c0.719,0,1.302,0.583,1.302,1.302l0,0C367.273,221.416,366.69,221.999,365.971,221.999z"/>
			</g>
			<g>
				<path style="fill:#8476E3;" d="M365.971,291.237H247.316c-0.719,0-1.302-0.583-1.302-1.302l0,0c0-0.719,0.583-1.302,1.302-1.302
					h118.655c0.719,0,1.302,0.583,1.302,1.302l0,0C367.273,290.654,366.69,291.237,365.971,291.237z"/>
				<path style="fill:#8476E3;" d="M365.971,302.933H247.316c-0.719,0-1.302-0.583-1.302-1.302l0,0c0-0.719,0.583-1.302,1.302-1.302
					h118.655c0.719,0,1.302,0.583,1.302,1.302l0,0C367.273,302.35,366.69,302.933,365.971,302.933z"/>
				<path style="fill:#8476E3;" d="M365.971,314.629H247.316c-0.719,0-1.302-0.583-1.302-1.302l0,0c0-0.719,0.583-1.302,1.302-1.302
					h118.655c0.719,0,1.302,0.583,1.302,1.302l0,0C367.273,314.046,366.69,314.629,365.971,314.629z"/>
			</g>
			<g>
				<path style="fill:#8476E3;" d="M365.971,337.553H247.316c-0.719,0-1.302-0.583-1.302-1.302l0,0c0-0.719,0.583-1.302,1.302-1.302
					h118.655c0.719,0,1.302,0.583,1.302,1.302l0,0C367.273,336.97,366.69,337.553,365.971,337.553z"/>
				<path style="fill:#8476E3;" d="M365.971,349.249H247.316c-0.719,0-1.302-0.583-1.302-1.302l0,0c0-0.719,0.583-1.302,1.302-1.302
					h118.655c0.719,0,1.302,0.583,1.302,1.302l0,0C367.273,348.666,366.69,349.249,365.971,349.249z"/>
				<path style="fill:#8476E3;" d="M365.971,360.944H247.316c-0.719,0-1.302-0.583-1.302-1.302l0,0c0-0.719,0.583-1.302,1.302-1.302
					h118.655c0.719,0,1.302,0.583,1.302,1.302l0,0C367.273,360.361,366.69,360.944,365.971,360.944z"/>
			</g>
			<g>
				<path style="fill:#8476E3;" d="M365.971,383.868H247.316c-0.719,0-1.302-0.583-1.302-1.302l0,0c0-0.719,0.583-1.302,1.302-1.302
					h118.655c0.719,0,1.302,0.583,1.302,1.302l0,0C367.273,383.285,366.69,383.868,365.971,383.868z"/>
				<path style="fill:#8476E3;" d="M365.971,395.564H247.316c-0.719,0-1.302-0.583-1.302-1.302l0,0c0-0.719,0.583-1.302,1.302-1.302
					h118.655c0.719,0,1.302,0.583,1.302,1.302l0,0C367.273,394.981,366.69,395.564,365.971,395.564z"/>
				<path style="fill:#8476E3;" d="M365.971,407.26H247.316c-0.719,0-1.302-0.583-1.302-1.302l0,0c0-0.719,0.583-1.302,1.302-1.302
					h118.655c0.719,0,1.302,0.583,1.302,1.302l0,0C367.273,406.677,366.69,407.26,365.971,407.26z"/>
			</g>
			<g>
				<path style="fill:#8476E3;" d="M365.971,244.922H247.316c-0.719,0-1.302-0.583-1.302-1.302l0,0c0-0.719,0.583-1.302,1.302-1.302
					h118.655c0.719,0,1.302,0.583,1.302,1.302l0,0C367.273,244.339,366.69,244.922,365.971,244.922z"/>
				<path style="fill:#8476E3;" d="M365.971,256.618H247.316c-0.719,0-1.302-0.583-1.302-1.302l0,0c0-0.719,0.583-1.302,1.302-1.302
					h118.655c0.719,0,1.302,0.583,1.302,1.302l0,0C367.273,256.035,366.69,256.618,365.971,256.618z"/>
				<path style="fill:#8476E3;" d="M365.971,268.314H247.316c-0.719,0-1.302-0.583-1.302-1.302l0,0c0-0.719,0.583-1.302,1.302-1.302
					h118.655c0.719,0,1.302,0.583,1.302,1.302l0,0C367.273,267.731,366.69,268.314,365.971,268.314z"/>
			</g>
			
				<rect x="214.169" y="242.544" style="fill:none;stroke:#8476E3;stroke-width:1.8954;stroke-miterlimit:10;" width="25.543" height="25.543"/>
			
				<rect x="214.169" y="288.859" style="fill:none;stroke:#8476E3;stroke-width:1.8954;stroke-miterlimit:10;" width="25.543" height="25.543"/>
			
				<rect x="214.169" y="381.49" style="fill:none;stroke:#8476E3;stroke-width:1.8954;stroke-miterlimit:10;" width="25.543" height="25.543"/>
			
				<rect x="214.169" y="335.175" style="fill:none;stroke:#8476E3;stroke-width:1.8954;stroke-miterlimit:10;" width="25.543" height="25.543"/>
			
				<polyline style="fill:none;stroke:#3E3577;stroke-width:3.7909;stroke-linecap:round;stroke-linejoin:round;stroke-miterlimit:10;" points="
				220.154,206.976 225.917,213.167 239.712,190.897 			"/>
		</g>
	</g>
	<g>
		<path style="fill:#E593A6;" d="M440.264,331.185c0,0-1.547-0.983-3.836-0.322c0.687,3.636,0.858,4.494,0.858,4.494l3.106-1.026
			L440.264,331.185z"/>
		<g>
			<path style="fill:#E593A6;" d="M437.3,331.693l-29.598-0.83c-3.337,10.152-7.378,27.503-8.443,36.671
				c-1.065,9.168-1.187,26.707,2.355,39.596l10.058,31.104h7.318l-3.81-26.19c-2.171-14.929-0.783-30.16,4.052-44.451l3.901-11.529
				l9.254,82.17h5.915C440.493,419.77,446.023,363.949,437.3,331.693z"/>
			<path style="fill:#3E3577;" d="M402.714,444.364h17.168l-0.892-6.13h-7.318C411.672,438.234,402.714,438.11,402.714,444.364z"/>
			<path style="fill:#3E3577;" d="M426.459,444.364c1.358,0,0.63,0,1.678,0h5.157h4.724l0.285-6.13h-5.915
				C429.187,438.201,426.459,440.978,426.459,444.364z"/>
		</g>
		<path style="fill:#E593A6;" d="M411.956,259.335v14.758c0,0,0.124,5.596,7.76,5.596c8.825,0,8.064-8.487,8.064-8.487
			s3.804-0.152,3.804-3.347c0-3.195-3.804-2.739-3.804-2.739v-5.782H411.956z"/>
		<path style="fill:#8476E3;" d="M427.414,283.061c-6.642-3.02-14.287-0.532-19.932,3.468c-5.105,3.617-10.757,12.515-17.812,7.473
			c-4.771-3.409-6.016-7.34-8.166-12.787l-3.462,0.782c0,0,0.657,6.291,5.32,14.523c5.063,8.938,15.076,12.297,23.814,8.264
			c0.473-0.218,0.942-0.456,1.409-0.716l-1.126,34.156l29.608-0.009C436.939,322.325,444.25,290.716,427.414,283.061z"/>
		<path style="fill:#8476E3;" d="M424.406,281.997c0,0,19.149,2.252,26.716,24.955c5.165,18.859-10.73,27.38-10.73,27.38
			l-0.128-3.146c0,0,10.604-14.264-2.73-26.035"/>
		<path style="fill:#3E3577;" d="M411.956,264.546c0,0-3.057-1.37-3.666-3.843c-0.84-3.411,3.348-10.994,15.176-10.055
			c11.828,0.939,17.85,9.797,17.724,22.681c-0.125,12.884,6.988,12.347,9.403,22.815c2.416,10.468-5.522,18.252-21.885,17.179
			c-16.364-1.074-19.048-14.226-15.693-22.144C416.371,283.261,421.77,267.499,411.956,264.546z"/>
		<path style="fill:#3E3577;" d="M407.703,330.863"/>
		<path style="fill:#EFC5BC;" d="M437.3,331.693c-9.583,1.041-19.465,0.69-29.598-0.83c0,0-11.974,19.457-11.974,56.751
			c16.228,5.346,45.891,3.076,51.837,0C447.565,387.614,445.503,352.856,437.3,331.693z"/>
		<path style="fill:#E593A6;" d="M381.505,281.215c0,0,1.337-5.879-0.71-6.444c-0.706-3.176-1.271-3.953-1.906-3.741
			c-0.635,0.212,0,3.6,0,3.6s-2.79,1.114-3.355,2.602c-0.565,1.488,2.508,4.765,2.508,4.765L381.505,281.215z"/>
		<path style="fill:#3E3577;" d="M414.697,268.865c-0.062,0.748-0.488,1.323-0.953,1.285c-0.465-0.038-0.791-0.676-0.729-1.424
			c0.062-0.748,0.488-1.323,0.953-1.285C414.432,267.479,414.759,268.117,414.697,268.865z"/>
		<path style="fill:#DB7E98;" d="M411.956,268.185c0,0-3.79,4.929,0,4.945"/>
		<path style="fill:#FFFFFF;" d="M412.957,274.675l2.733-0.619c0,0-0.258,1.702-2.088,2.217
			C413.602,276.273,412.983,275.474,412.957,274.675z"/>
	</g>
	<g>
		<path style="fill:#8476E3;" d="M111.458,438.11c0,0-9.756,0.084-9.756,6.254c11.465,0,17.168,0,17.168,0l0.567-6.254H111.458z"/>
		<path style="fill:#8476E3;" d="M149.951,438.11c0,0,9.755,0.084,9.755,6.254c-11.465,0-16.7,0-16.7,0l0.442-6.254H149.951z"/>
		<path style="fill:#3E3577;" d="M124.996,276.385c0,0-7.754-3.421-8.97-10.947c-1.216-7.526,3.953-13.228,12.619-14.9
			c8.666-1.673,11.238,3.27,7.634,5.892C132.674,259.052,124.996,276.385,124.996,276.385z"/>
		<path style="fill:#DB7E98;" d="M124.001,283.452l-1.537-13.241l9.9-1.149l1.429,12.314
			C130.638,282.271,127.374,282.963,124.001,283.452z"/>
		<path style="fill:#E593A6;" d="M136.279,256.431c0.225-0.02,1.563,10.821,1.676,11.677c0.229,1.739,0.8,3.676,0.12,5.356
			c-1.071,2.65-3.798,3.844-6.472,4.243c-8.728,1.301-9.227-7.206-9.227-7.206s-3.785,0.41-4.255-2.75
			c-0.471-3.16,3.358-3.269,3.358-3.269l-0.852-5.719L136.279,256.431z"/>
		<g>
			<path style="fill:#EEC161;" d="M189.503,234.806L46.713,270.23c-6.547,1.624-13.172-2.367-14.796-8.914v0
				c-1.624-6.547,2.367-13.172,8.914-14.796l142.791-35.425L189.503,234.806z"/>
			<path style="fill:#E2809B;" d="M52.185,268.873l-5.472,1.358c-6.547,1.624-13.172-2.367-14.796-8.914v0
				c-1.624-6.547,2.367-13.172,8.914-14.796l5.472-1.358L52.185,268.873z"/>
			
				<rect x="49.126" y="243.836" transform="matrix(0.9706 -0.2408 0.2408 0.9706 -60.0907 20.3298)" style="fill:#ECE9FC;" width="8.034" height="24.429"/>
			<g>
				<polygon style="fill:#EFC5BC;" points="183.621,211.096 189.503,234.805 210.109,221.482 208.065,213.243 				"/>
				<polygon style="fill:#3E3577;" points="208.065,213.243 210.109,221.482 221.083,214.386 				"/>
			</g>
		</g>
		<path style="fill:#E593A6;" d="M71.864,266.845c0,0,0.305-5.955-0.625-6.325c-0.887-0.2-1.046,3.815-1.046,3.815l-8.252,2.137
			c0,0,0.978,1.616,4.188,1.616"/>
		<path style="fill:#3E3577;" d="M128.547,265.654c0.11,0.743-0.175,1.4-0.636,1.468c-0.461,0.068-0.924-0.478-1.034-1.221
			c-0.11-0.743,0.175-1.4,0.636-1.468C127.975,264.365,128.438,264.911,128.547,265.654z"/>
		<path style="fill:#3E3577;" d="M135.627,264.607c0.11,0.743-0.175,1.4-0.636,1.468c-0.461,0.068-0.924-0.479-1.033-1.221
			c-0.11-0.742,0.175-1.4,0.636-1.468C135.054,263.318,135.517,263.865,135.627,264.607z"/>
		<path style="fill:#FFFFFF;" d="M128.749,270.906l6.706-1.037c0,0,0.227,2.308-2.724,2.762
			C129.511,273.126,128.749,270.906,128.749,270.906z"/>
		<path style="fill:#DB7E98;" d="M131.013,264.238c0,0,4.407,4.064,0.694,4.825"/>
		<path style="fill:#DB7E98;" d="M121.562,266.076c0,0-2.351,0.19-1.9,1.901c0.451,1.712,2.433,1.086,2.433,1.086L121.562,266.076z"
			/>
		<g>
			<g>
				<g>
					<path style="fill:#3E3577;" d="M152.735,329.516C152.813,330.152,152.713,328.855,152.735,329.516L152.735,329.516z"/>
					<path style="fill:#3E3577;" d="M152.735,329.516h-38.874l-1.107,108.594h6.683l14.553-82.546l9.459,82.546h6.503
						C149.951,438.11,153.971,366.296,152.735,329.516z"/>
				</g>
				<path style="fill:#8476E3;" d="M174.722,241.306c-4.699,0.427-4.699,0.427-4.699,0.427s3.438,26.36-34.064,38.966
					c0,0-39.26,14.127-64.157-13.921l-5.674,1.309c0,0,14.945,27.759,48.035,31.856l-0.302,29.572
					c13.011,2.147,25.969,2.165,38.874,0c0.462-12.81-0.981-37.133-0.981-37.133S180.864,278.895,174.722,241.306z"/>
			</g>
			<g>
				<g>
					<path style="fill:#BFB7FB;" d="M135.001,331.133h-0.474c0-22.973-3.742-48.668-3.78-48.963l0.499-0.122
						C131.284,282.341,135.001,308.131,135.001,331.133z"/>
				</g>
			</g>
			<g>
				<path style="fill:#BFB7FB;" d="M114.163,299.944l-0.48-0.061c0.015-0.085,1.32-8.725,0.558-15.635l0.468-0.009
					C115.48,291.215,114.177,299.857,114.163,299.944z"/>
			</g>
			<g>
				<path style="fill:#BFB7FB;" d="M151.754,292.383c-0.034-0.117-3.774-11.536-7.407-15.023l0.438-0.207
					c3.723,3.573,7.257,14.542,7.398,15.016L151.754,292.383z"/>
			</g>
			<circle style="fill:#BFB7FB;" cx="129.728" cy="284.243" r="0.573"/>
			<circle style="fill:#BFB7FB;" cx="130.301" cy="293.144" r="0.573"/>
			<circle style="fill:#BFB7FB;" cx="131.337" cy="302.046" r="0.573"/>
			<circle style="fill:#BFB7FB;" cx="131.91" cy="310.947" r="0.573"/>
			<circle style="fill:#BFB7FB;" cx="132.576" cy="319.848" r="0.573"/>
			<circle style="fill:#BFB7FB;" cx="133.149" cy="328.75" r="0.573"/>
		</g>
		<path style="fill:#E593A6;" d="M170.032,241.747c0,0-0.292-5.698,0.598-6.051c0.849-0.192,0.996,3.545,0.996,3.545l5.764-1.43
			c0,0,0.027,1.781-2.668,3.496"/>
	</g>
	<g>
		<path style="fill:#DB7E98;" d="M336.495,73.148c-5.606-0.701-13.16,3.87-7.904,25.594c5.256,21.724,32.318,22.473,32.318,22.473
			l1.75-4.877C327.857,108.371,342.101,73.849,336.495,73.148z"/>
		<path style="fill:#3E3577;" d="M377.205,180.123c0,0,9.755,0.084,9.755,6.254h-17.168l0.526-6.254H377.205z"/>
		<path style="fill:#E1ABA4;" d="M331.033,115.969l19.03,28.252c23.179,0,20.256,35.901,20.256,35.901h8.306
			c0,0,2.469-17.945-1.346-32.077C369.917,120.776,331.033,115.969,331.033,115.969z"/>
		<path style="fill:#8476E3;" d="M325.652,61.283c0,0-6.703-3.519-7.658-11.753c-0.954-8.234,4.566-13.407,11.785-14.78
			c7.219-1.372,17.998,5.152,12.434,11.056"/>
		<g>
			<path style="fill:#DB7E98;" d="M332.952,110.93l-27.734-2.982c-0.06,1.508,0,3.464,0,5.071l27.938-0.236
				C332.995,112.171,332.918,111.553,332.952,110.93z"/>
			<path style="fill:#EFC5BC;" d="M344.978,123.722c-4.644-2.415-10.641-6.462-11.822-10.94l-27.938,0.236
				c0,34.993,14.189,31.203,35.723,31.203c19.291,0,9.578,36.798,9.578,36.798h8.366
				C358.885,181.02,376.382,134.615,344.978,123.722z"/>
		</g>
		<path style="fill:#3E3577;" d="M342.126,81.453c-1.134-5.92-5.473-15.082-9.992-16.145c-7.097-1.67-13.429,0.104-18.343,4.223
			c-5.018,4.206-7.724,10.555-7.897,17.101c-0.148,5.601-0.392,14.118-0.676,21.316l27.734,2.982
			C333.607,98.895,344.24,92.483,342.126,81.453z"/>
		<polygon style="fill:#3E3577;" points="349.029,103.176 345.298,120.432 326.376,121.431 326.376,122.848 343.189,131.767 
			376.379,128.072 376.448,126.744 383.581,101.693 		"/>
		<path style="fill:#E593A6;" d="M319.975,69.971c-6.044-0.755-16.997,4.533-11.332,27.951c5.666,23.419,36.33,24.098,36.33,24.098
			l1.083-5.16C308.538,108.272,326.018,70.726,319.975,69.971z"/>
		<path style="fill:#DB7E98;" d="M329.192,69.873L329.192,69.873c-2.918-0.32-5.024-2.944-4.705-5.862l0.926-8.454l10.236,1.121
			l-0.962,8.786C334.387,68.198,331.927,70.172,329.192,69.873z"/>
		<path style="fill:#3E3577;" d="M357.548,180.756c0,0,9.537,2.056,8.288,8.098l-16.813-3.473l1.887-5.996L357.548,180.756z"/>
		<path style="fill:#E593A6;" d="M342.435,43.779l-1.607,14.671c0,0-0.732,5.549-8.323,4.718c-8.772-0.961-7.092-9.314-7.092-9.314
			s-3.765-0.565-3.417-3.742c0.348-3.176,4.079-2.308,4.079-2.308l0.629-5.747L342.435,43.779z"/>
		<polygon style="fill:#8476E3;" points="326.407,39.649 325.874,47.766 327.346,51.151 329.318,39.902 		"/>
		<path style="fill:#3E3577;" d="M333.001,51.783c-0.085,0.746-0.53,1.307-0.993,1.255c-0.463-0.053-0.769-0.7-0.684-1.446
			c0.085-0.746,0.53-1.307,0.993-1.255C332.78,50.39,333.086,51.037,333.001,51.783z"/>
		<path style="fill:#3E3577;" d="M340.111,52.595c-0.085,0.746-0.53,1.307-0.993,1.254c-0.463-0.053-0.769-0.7-0.684-1.446
			c0.085-0.746,0.53-1.307,0.993-1.254C339.89,51.202,340.196,51.849,340.111,52.595z"/>
		<path style="fill:#DB7E98;" d="M335.748,51.687c0,0,3.212,5.062-0.572,4.841"/>
		<path style="fill:#DB7E98;" d="M326.142,49.38c0,0-2.32-0.422-2.326,1.348c-0.006,1.77,2.071,1.676,2.071,1.676L326.142,49.38z"/>
		<path style="fill:none;stroke:#3E3577;stroke-width:0.4427;stroke-miterlimit:10;" d="M332.148,57.413
			c0,0,2.303,2.181,5.717,0.626"/>
	</g>
</g>
<g id="DESIGNED_BY_FREEPIK">
	<g>
		<g id="XMLID_319_">
			<g id="XMLID_338_">
				<path id="XMLID_346_" style="fill:#A5B7C6;" d="M260.104,473.046c-0.432,0.443-0.803,0.931-1.108,1.453l-0.465-0.241
					c-0.067-0.298-0.349-0.503-0.659-0.466c-0.331,0.039-0.568,0.339-0.529,0.67c0.039,0.331,0.339,0.568,0.67,0.529
					c0.065-0.008,0.127-0.026,0.184-0.052l0.452,0.234c-0.251,0.554-0.433,1.139-0.539,1.744l0.747,0.132
					c0.23-1.306,0.85-2.507,1.792-3.473L260.104,473.046z"/>
				<path id="XMLID_345_" style="fill:#A5B7C6;" d="M265.592,470.744c-0.171,0-0.341,0.006-0.51,0.017l-0.074-0.626
					c0.188-0.149,0.296-0.389,0.266-0.645c-0.046-0.393-0.402-0.674-0.795-0.628c-0.393,0.046-0.674,0.402-0.628,0.795
					c0.03,0.254,0.189,0.461,0.405,0.564l0.073,0.624c-0.714,0.116-1.403,0.332-2.06,0.646l0.327,0.684
					c0.934-0.447,1.942-0.673,2.995-0.673c0.496,0,0.993,0.053,1.475,0.158l0.161-0.741
					C266.692,470.802,266.142,470.744,265.592,470.744z"/>
				<path id="XMLID_344_" style="fill:#A5B7C6;" d="M272.194,473.291c0.331-0.04,0.566-0.341,0.526-0.672
					c-0.04-0.331-0.341-0.566-0.672-0.526c-0.309,0.038-0.535,0.304-0.53,0.609l-0.416,0.363c-0.418-0.43-0.89-0.813-1.408-1.139
					l-0.404,0.641c1.134,0.715,2.021,1.726,2.563,2.925l0.691-0.313c-0.251-0.554-0.568-1.072-0.942-1.545l0.402-0.351
					C272.065,473.296,272.129,473.299,272.194,473.291z"/>
				<path id="XMLID_343_" style="fill:#A5B7C6;" d="M265.044,480.952c-0.386,0.023-0.775,0.035-1.157,0.035
					c-0.88,0-1.733-0.061-2.478-0.179c-0.39-0.062-0.846-0.155-1.27-0.292c1.046,1.861,3.069,3.125,5.388,3.125
					c2.855,0,5.262-1.916,5.95-4.504c-0.682,0.449-1.506,0.825-2.459,1.123C267.839,480.627,266.463,480.867,265.044,480.952z"/>
				<path id="XMLID_339_" style="fill:#A5B7C6;" d="M265.592,472.26c-3.352,0-6.08,2.666-6.08,5.943
					c0,0.426,0.046,0.849,0.137,1.261c0.673,0.483,2.706,0.89,5.348,0.731c2.879-0.173,5.297-0.957,6.672-2.159
					c-0.005-0.195-0.021-0.39-0.045-0.582C271.244,474.493,268.65,472.26,265.592,472.26z M263.432,478.775
					c-1.02,0-1.85-0.83-1.85-1.85c0-1.02,0.83-1.85,1.85-1.85c1.02,0,1.85,0.83,1.85,1.85
					C265.282,477.945,264.452,478.775,263.432,478.775z M268.17,477.866c-0.75,0-1.36-0.61-1.36-1.36s0.61-1.361,1.36-1.361
					c0.75,0,1.361,0.61,1.361,1.361S268.92,477.866,268.17,477.866z"/>
			</g>
			<path id="XMLID_336_" style="fill:#A5B7C6;" d="M281.595,474.127c-0.295-0.116-0.805-0.309-1.382-0.237
				c-0.551,0.069-0.844,0.341-0.844,1.007v0.866h2.228v1.717h-2.228v5.455h-1.932v-5.455h-1.34v-1.717h1.34v-0.888
				c0-1.68,0.896-2.783,2.568-2.783c0.643,0,1.157,0.122,1.59,0.308L281.595,474.127z"/>
			<path id="XMLID_334_" style="fill:#A5B7C6;" d="M286.298,477.459c-0.177-0.03-0.358-0.046-0.526-0.046
				c-0.896,0-1.51,0.548-1.51,1.613v3.908h-1.932v-7.172h1.873v0.785c0.451-0.673,1.14-0.977,2.021-0.977
				c0.414,0,0.848,0.128,1.094,0.337L286.298,477.459z"/>
			<path id="XMLID_331_" style="fill:#A5B7C6;" d="M293.965,479.337c0,0.222-0.015,0.489-0.037,0.651h-5.085
				c0.207,1.036,0.933,1.488,1.843,1.488c0.622,0,1.295-0.252,1.813-0.688l1.133,1.243c-0.814,0.748-1.85,1.088-3.057,1.088
				c-2.198,0-3.723-1.495-3.723-3.753c0-2.258,1.48-3.797,3.627-3.797C292.544,475.57,293.958,477.102,293.965,479.337z
				 M288.851,478.671h3.175c-0.177-0.918-0.733-1.436-1.562-1.436C289.554,477.235,289.021,477.783,288.851,478.671z"/>
			<path id="XMLID_328_" style="fill:#A5B7C6;" d="M301.618,479.337c0,0.222-0.015,0.489-0.037,0.651h-5.085
				c0.207,1.036,0.933,1.488,1.843,1.488c0.622,0,1.295-0.252,1.813-0.688l1.132,1.243c-0.814,0.748-1.85,1.088-3.057,1.088
				c-2.198,0-3.723-1.495-3.723-3.753c0-2.258,1.48-3.797,3.627-3.797C300.197,475.57,301.611,477.102,301.618,479.337z
				 M296.504,478.671h3.175c-0.178-0.918-0.733-1.436-1.562-1.436C297.207,477.235,296.674,477.783,296.504,478.671z"/>
			<path id="XMLID_325_" style="fill:#A5B7C6;" d="M309.964,479.345c0,2.154-1.495,3.775-3.471,3.775
				c-0.962,0-1.643-0.378-2.109-0.933v3.708h-1.924v-10.133h1.887v0.792c0.466-0.585,1.155-0.984,2.139-0.984
				C308.469,475.57,309.964,477.191,309.964,479.345z M304.287,479.345c0,1.132,0.747,1.976,1.843,1.976
				c1.14,0,1.85-0.881,1.85-1.976c0-1.095-0.71-1.976-1.85-1.976C305.035,477.368,304.287,478.212,304.287,479.345z"/>
			<path id="XMLID_322_" style="fill:#A5B7C6;" d="M313.068,473.416c0,0.696-0.54,1.229-1.236,1.229
				c-0.696,0-1.229-0.533-1.229-1.229c0-0.696,0.533-1.243,1.229-1.243C312.527,472.173,313.068,472.72,313.068,473.416z
				 M312.809,482.934h-1.932v-7.172h1.932V482.934z"/>
			<path id="XMLID_320_" style="fill:#A5B7C6;" d="M316.032,478.316l2.701-2.554h2.368l-3.479,3.375l3.501,3.797h-2.376
				l-2.716-2.901v2.901H314.1v-10.658h1.932V478.316z"/>
		</g>
		<g>
			<path style="fill:#A5B7C6;" d="M184.412,482.869v-1.055c-0.527,0.718-1.391,1.23-2.387,1.23c-1.846,0-3.149-1.406-3.149-3.706
				c0-2.256,1.289-3.721,3.149-3.721c0.952,0,1.816,0.469,2.387,1.245v-3.765h1.099v9.77H184.412z M184.412,480.95v-3.208
				c-0.395-0.615-1.245-1.143-2.124-1.143c-1.421,0-2.27,1.172-2.27,2.739c0,1.567,0.85,2.724,2.27,2.724
				C183.167,482.064,184.017,481.566,184.412,480.95z"/>
			<path style="fill:#A5B7C6;" d="M186.932,479.325c0-2.051,1.465-3.706,3.486-3.706c2.139,0,3.398,1.67,3.398,3.794v0.279h-5.727
				c0.088,1.333,1.025,2.446,2.549,2.446c0.805,0,1.626-0.322,2.182-0.894l0.527,0.718c-0.703,0.703-1.655,1.084-2.812,1.084
				C188.44,483.045,186.932,481.536,186.932,479.325z M190.403,476.527c-1.509,0-2.256,1.274-2.314,2.358h4.643
				C192.718,477.83,192.014,476.527,190.403,476.527z"/>
			<path style="fill:#A5B7C6;" d="M194.607,481.932l0.571-0.791c0.469,0.542,1.362,1.011,2.329,1.011c1.084,0,1.67-0.513,1.67-1.216
				c0-1.714-4.38-0.659-4.38-3.281c0-1.098,0.952-2.036,2.636-2.036c1.201,0,2.051,0.454,2.622,1.026l-0.513,0.762
				c-0.424-0.513-1.201-0.894-2.109-0.894c-0.967,0-1.567,0.483-1.567,1.113c0,1.552,4.38,0.527,4.38,3.281
				c0,1.187-0.952,2.138-2.783,2.138C196.306,483.045,195.324,482.693,194.607,481.932z"/>
			<path style="fill:#A5B7C6;" d="M201.477,474.051c0-0.41,0.337-0.747,0.732-0.747c0.41,0,0.747,0.337,0.747,0.747
				c0,0.41-0.337,0.732-0.747,0.732C201.814,474.783,201.477,474.461,201.477,474.051z M201.667,482.869v-7.075h1.099v7.075H201.667
				z"/>
			<path style="fill:#A5B7C6;" d="M204.582,484.686l0.556-0.82c0.586,0.703,1.289,0.967,2.3,0.967c1.172,0,2.27-0.571,2.27-2.124
				v-1.011c-0.513,0.718-1.377,1.26-2.373,1.26c-1.845,0-3.149-1.377-3.149-3.662c0-2.27,1.289-3.677,3.149-3.677
				c0.952,0,1.802,0.469,2.373,1.245v-1.069h1.098v6.87c0,2.344-1.641,3.076-3.369,3.076
				C206.237,485.74,205.417,485.506,204.582,484.686z M209.709,480.833v-3.091c-0.381-0.615-1.23-1.143-2.109-1.143
				c-1.421,0-2.27,1.128-2.27,2.695c0,1.553,0.849,2.695,2.27,2.695C208.478,481.99,209.328,481.449,209.709,480.833z"/>
			<path style="fill:#A5B7C6;" d="M217.413,482.869v-4.629c0-1.245-0.63-1.641-1.582-1.641c-0.865,0-1.685,0.527-2.095,1.099v5.17
				h-1.099v-7.075h1.099v1.025c0.498-0.586,1.465-1.201,2.519-1.201c1.48,0,2.256,0.747,2.256,2.285v4.966H217.413z"/>
			<path style="fill:#A5B7C6;" d="M219.932,479.325c0-2.051,1.465-3.706,3.486-3.706c2.138,0,3.398,1.67,3.398,3.794v0.279h-5.727
				c0.088,1.333,1.025,2.446,2.549,2.446c0.806,0,1.626-0.322,2.183-0.894l0.527,0.718c-0.703,0.703-1.655,1.084-2.812,1.084
				C221.441,483.045,219.932,481.536,219.932,479.325z M223.404,476.527c-1.509,0-2.256,1.274-2.314,2.358h4.643
				C225.718,477.83,225.015,476.527,223.404,476.527z"/>
			<path style="fill:#A5B7C6;" d="M233.35,482.869v-1.055c-0.527,0.718-1.392,1.23-2.388,1.23c-1.845,0-3.149-1.406-3.149-3.706
				c0-2.256,1.289-3.721,3.149-3.721c0.952,0,1.817,0.469,2.388,1.245v-3.765h1.098v9.77H233.35z M233.35,480.95v-3.208
				c-0.396-0.615-1.245-1.143-2.124-1.143c-1.421,0-2.27,1.172-2.27,2.739c0,1.567,0.849,2.724,2.27,2.724
				C232.105,482.064,232.954,481.566,233.35,480.95z"/>
			<path style="fill:#A5B7C6;" d="M239.692,482.869v-9.77h1.098v3.765c0.572-0.776,1.421-1.245,2.388-1.245
				c1.845,0,3.149,1.465,3.149,3.721c0,2.299-1.304,3.706-3.149,3.706c-0.996,0-1.86-0.513-2.388-1.23v1.055H239.692z
				 M242.9,482.064c1.436,0,2.286-1.157,2.286-2.724c0-1.568-0.85-2.739-2.286-2.739c-0.864,0-1.728,0.527-2.109,1.143v3.208
				C241.171,481.566,242.036,482.064,242.9,482.064z"/>
			<path style="fill:#A5B7C6;" d="M247.528,484.642c0.161,0.073,0.425,0.117,0.601,0.117c0.483,0,0.806-0.161,1.055-0.747
				l0.469-1.069l-2.959-7.148h1.187l2.358,5.8l2.344-5.8h1.201l-3.545,8.51c-0.425,1.025-1.143,1.421-2.08,1.435
				c-0.234,0-0.601-0.044-0.806-0.103L247.528,484.642z"/>
		</g>
	</g>
</g>
</svg>
